<?xml version="1.0" encoding="utf-8"?>
<!-- Generator: Adobe Illustrator 24.1.2, SVG Export Plug-In . SVG Version: 6.00 Build 0)  -->
<svg version="1.1" id="Layer_1" xmlns="http://www.w3.org/2000/svg" xmlns:xlink="http://www.w3.org/1999/xlink" x="0px" y="0px"
	 viewBox="0 0 464.5 211.3" style="enable-background:new 0 0 464.5 211.3;" xml:space="preserve">
<style type="text/css">
	.st0{fill:none;}
	.st1{fill:#6063BB;}
</style>
<g id="Layer_2_1_">
	<rect class="st0" width="433.5" height="211.3"/>
</g>
<g id="Layer_1_1_">
	<path class="st1" d="M39.1,72.8c-2.5-0.6-3.8-0.9-6.3-1.5c0.9-14.8,1.7-29.7,2.6-44.5l6.5,0.3C41,42.3,40.1,57.5,39.1,72.8z
		 M37.7,47.6c6.4,0.8,9.6,1.2,16,2L53.4,54c-6.4-0.9-9.6-1.3-15.9-2.3L37.7,47.6z M55.5,75.4c-2.2-1.3-4-3.1-5.3-5.2
		c-1.2-2.1-1.7-4.4-1.5-6.8c0.6-9.8,1-14.7,1.6-24.4c0.1-2.3,0.9-4.5,2.3-6.3c1.6-1.8,3.6-3.1,5.9-3.8c2.9-0.9,6-1.3,9-1.1
		c3,0,6,0.7,8.8,1.9c2.2,1,4.1,2.6,5.3,4.7c1.2,2.2,1.7,4.7,1.5,7.2l-1.8,27c-0.1,2.5-0.9,4.8-2.4,6.8c-1.5,1.8-3.6,3-5.9,3.5
		c-3,0.6-6,0.5-8.9-0.2C61.1,78,58.2,76.9,55.5,75.4z M69.9,73.8c1.4-0.3,2.6-1,3.5-2c0.9-1.1,1.4-2.5,1.4-4
		c0.7-10.8,1.1-16.2,1.8-27c0.1-1.5-0.2-2.9-0.9-4.2c-0.8-1.2-1.9-2.2-3.2-2.8c-1.7-0.7-3.5-1.1-5.3-1.2c-1.8-0.1-3.7,0.1-5.4,0.6
		c-1.4,0.4-2.6,1.2-3.5,2.3c-0.9,1.1-1.4,2.4-1.4,3.8c-0.7,10.2-1,15.3-1.7,25.4c-0.1,1.4,0.2,2.9,0.9,4.1c0.8,1.3,1.9,2.4,3.2,3.1
		c1.6,0.9,3.4,1.5,5.2,1.8C66.3,74.1,68.1,74.1,69.9,73.8z"/>
	<path class="st1" d="M92.4,29.2l6.7,0.3l-3.5,54c-2.7-0.4-4-0.6-6.6-1C90,64.7,91.2,46.9,92.4,29.2z M94.7,78.3
		c5.2,0.7,7.8,1.1,13.1,1.8c1.6,0.3,3.3,0.1,4.8-0.7c1.2-0.7,1.9-2,1.9-3.3c0.2-4,0.3-5.9,0.6-9.9c0.1-1.3-0.1-2.6-0.7-3.7
		c-0.5-1.1-1.3-1.9-2.3-2.5c-1-0.6-2.2-1-3.4-1.1c-5.1-0.4-7.6-0.7-12.6-1.1c0.1-2,0.2-3,0.3-5c5,0.4,7.6,0.6,12.6,1
		c1.6,0.2,3.2-0.2,4.5-1.3c1.2-1.2,1.8-2.8,1.8-4.4c0.2-3.2,0.3-4.8,0.5-8c0.2-1.3-0.3-2.7-1.3-3.6c-1.2-1-2.7-1.5-4.2-1.4
		c-5.1-0.2-7.6-0.3-12.6-0.5l0.3-5c5,0.2,7.4,0.3,12.4,0.4c2.3,0,4.6,0.5,6.7,1.4c1.7,0.7,3.1,1.9,4.1,3.4c0.9,1.6,1.4,3.4,1.2,5.3
		l-0.3,7.6c-0.1,1.6-0.4,3.2-1,4.7c-0.5,1.2-1.3,2.4-2.3,3.2c-1,0.8-2.2,1.3-3.5,1.5c1.4,0.3,2.7,1,3.8,2c1,1,1.8,2.3,2.2,3.7
		c0.5,1.7,0.7,3.4,0.6,5.1l-0.5,9.1c0,1.9-0.7,3.7-1.8,5.2c-1.1,1.4-2.7,2.4-4.5,2.9c-2.2,0.6-4.5,0.6-6.8,0.3
		c-5.5-0.8-8.3-1.1-13.8-2C94.5,81.2,94.6,80.2,94.7,78.3z"/>
	<path class="st1" d="M131.9,30.3l6.6,0.2c-0.9,19.3-1.9,38.7-2.9,58c-2.7-0.3-4.1-0.4-6.8-0.7L131.9,30.3z M136.4,30.4
		c9.7,0.2,14.5,0.3,24.2,0.5c-0.1,2.2-0.1,3.3-0.2,5.5c-9.7-0.2-14.6-0.3-24.3-0.7L136.4,30.4z M135.1,56.9
		c8.8,0.5,13.3,0.8,22.2,1.2c-0.1,2.2-0.1,3.3-0.2,5.5c-8.9-0.5-13.4-0.7-22.2-1.3C134.9,60.1,135,59,135.1,56.9z M133.8,82.9
		c9.9,1,14.8,1.4,24.8,2.1l-0.2,5.5c-10-0.8-14.9-1.2-24.8-2.3C133.6,86.1,133.7,85,133.8,82.9L133.8,82.9z"/>
	<path class="st1" d="M166.2,85.1l1,0.1c0.8,0.1,1.5-0.1,2.3-0.4c0.6-0.3,1.2-0.8,1.5-1.4c0.4-0.7,0.6-1.4,0.6-2.2l1.6-50l6.7,0.1
		L178.4,82c0,1.8-0.5,3.5-1.4,5.1c-0.9,1.4-2.1,2.6-3.6,3.2c-1.7,0.7-3.5,1-5.4,0.9L166,91C166.1,88.6,166.1,87.4,166.2,85.1z
		 M177,31.2c8.6,0.1,12.8,0.1,21.4,0.2l-0.1,5.6c-8.6-0.1-12.9-0.2-21.4-0.3C176.9,34.5,176.9,33.4,177,31.2z M194.3,31.4
		c2.7,0,4,0,6.7,0c-0.3,20.4-0.7,40.8-1,61.3c-2.8-0.1-4.1-0.1-6.9-0.2C193.5,72.1,193.9,51.7,194.3,31.4L194.3,31.4z"/>
	<path class="st1" d="M237.5,93c-0.1-16.6-0.2-33.1-0.3-49.6l1.1,1.1c-7.9,16.3-15.9,32.4-24,48.5l-4.7-0.1
		c0.2-20.5,0.4-40.9,0.6-61.4h6.2l-0.4,50l-1.1-1.1c8.2-16.2,16.1-32.5,23.9-48.8h4.4l0.6,61.4C241.3,93,240,93,237.5,93z"/>
	<path class="st1" d="M252.5,31.4h6.7l1.1,61.1c-2.8,0.1-4.1,0.1-6.9,0.2C253.2,72.3,252.8,51.9,252.5,31.4z M258,63.2
		c5.8-0.1,8.8-0.2,14.6-0.4c1.2,0,2.5-0.3,3.5-0.9c1-0.6,1.7-1.4,2.2-2.5c0.5-1.2,0.7-2.5,0.7-3.8l-0.4-11.8c0-1.3-0.3-2.7-0.9-3.9
		c-0.5-1-1.3-1.9-2.3-2.4c-1.1-0.6-2.3-0.8-3.6-0.8c-5.8,0.1-8.6,0.1-14.4,0.2l-0.1-5.6c5.6,0,8.4-0.1,14-0.1c2.5-0.1,5,0.4,7.3,1.4
		c2,0.9,3.6,2.4,4.8,4.3c1.2,2.1,1.8,4.4,1.8,6.8l0.4,11.8c0.1,2.3-0.3,4.7-1.4,6.8c-1,1.9-2.6,3.5-4.6,4.4
		c-2.3,1.1-4.8,1.7-7.4,1.8c-5.7,0.2-8.6,0.3-14.3,0.4L258,63.2z"/>
	<path class="st1" d="M294.4,30.9l6.6-0.1l2.5,59.1c-2.7,0.2-4.1,0.3-6.8,0.6L294.4,30.9z M301.4,58.2c8.4-0.4,12.5-0.6,20.9-1.2
		l0.3,5.3c-8.3,0.6-12.5,0.8-20.9,1.3L301.4,58.2z M318.7,30.4l6.6-0.2l3,57.2c-2.7,0.3-4.1,0.4-6.8,0.7
		C320.6,69,319.7,49.7,318.7,30.4z"/>
	<path class="st1" d="M334.5,30.1l6.6-0.2l3.3,55.7c-2.7,0.4-4,0.5-6.7,0.9C336.7,67.6,335.6,48.9,334.5,30.1z M342.3,80.7
		c5.3-0.6,8-1,13.2-1.7c1.2-0.1,2.4-0.6,3.4-1.2c0.9-0.6,1.7-1.4,2.1-2.4c0.5-1.1,0.6-2.3,0.5-3.4c-0.3-3.8-0.4-5.8-0.6-9.6
		c0-1.2-0.4-2.4-1-3.4c-0.5-0.9-1.4-1.6-2.4-2c-1.1-0.4-2.4-0.6-3.6-0.4c-5.3,0.5-7.9,0.7-13.2,1.1l-0.3-5.2c5.1-0.4,7.7-0.5,12.8-1
		c2.5-0.3,5,0,7.3,0.8c1.9,0.6,3.6,1.8,4.8,3.4c1.2,1.7,1.9,3.8,2,5.9c0.3,3.8,0.4,5.7,0.6,9.6c0.4,4.3-1.8,8.5-5.6,10.6
		c-2.2,1.3-4.7,2.1-7.2,2.4c-5.1,0.7-7.7,1.1-12.9,1.8L342.3,80.7z M380.9,79.9c-2.6,0.5-3.9,0.7-6.6,1.1
		c-1.1-17.4-2.3-34.8-3.5-52.2l6.6-0.3C378.6,45.7,379.8,62.8,380.9,79.9L380.9,79.9z"/>
	<path class="st1" d="M416.9,72.6c-0.8-12.3-1.5-24.5-2.3-36.8l1.1,0.7c-7.1,13.4-13.9,26.9-20.4,40.7l-4.4,0.9
		c-1.1-16.6-2.2-33.2-3.4-49.8l6.1-0.3c0.9,13.2,1.8,26.5,2.7,39.7l-1.1-0.7c6.5-13.5,13.3-26.9,20.6-40l4.4-0.2
		c0.9,14.8,1.7,29.7,2.6,44.5C420.4,71.8,419.2,72.1,416.9,72.6z M415.2,14.3c0.3,2.6-0.7,5.3-2.7,7c-2,1.7-4.9,2.7-8.7,2.8h-0.4
		c-3.8,0.1-6.8-0.6-9-2.4c-2.3-1.8-3.6-4.6-3.7-7.5h6c0,1.7,0.7,3.4,1.9,4.6c1.2,1.1,2.9,1.7,4.5,1.6h0.4c1.6,0.1,3.2-0.5,4.4-1.7
		c1.1-1.2,1.5-2.8,1.3-4.5L415.2,14.3z"/>
	<path class="st1" d="M121.1,126.4c2.7,0.5,4,0.7,6.7,1.2c-1,19.2-2,38.3-3,57.5c-2.7-0.7-4-1-6.7-1.7c0.8-15.2,1.7-30.5,2.5-45.8
		c0.1,1,0.2,1.6,0.3,2.6c-4.9,10.7-10,21.3-15.2,31.8c-2.3-0.7-3.5-1-5.8-1.7c-3.6-12.2-7.2-24.5-10.9-36.7c0.3-1.2,0.4-1.8,0.7-3
		l-2.8,43.2c-2.6-0.9-3.9-1.4-6.4-2.4l3.5-52.9c2.6,0.7,3.9,1,6.5,1.6c4.3,14.6,8.6,29.2,12.8,43.8
		C109.4,151.4,115.3,138.9,121.1,126.4z"/>
	<path class="st1" d="M149.2,130.7c3.4,0.4,5,0.6,8.4,1c4.8,20.7,9.6,41.4,14.5,62c-3.2-0.4-4.8-0.6-8-1.1
		c-3.7-18.3-7.4-36.6-11-54.9c-4.9,16.8-10,33.5-15.1,50.3c-3.1-0.7-4.7-1-7.8-1.7C136.8,167.8,143.1,149.3,149.2,130.7z
		 M140.2,168.7c9.6,1.8,14.5,2.6,24.3,3.8l-0.2,5.5c-9.8-1.3-14.7-2.1-24.4-4L140.2,168.7z"/>
	<path class="st1" d="M180.3,133.8c2.8,0.2,4.2,0.3,7,0.5l-1.3,60.9c-2.9-0.3-4.4-0.4-7.3-0.8C179.2,174.3,179.8,154,180.3,133.8z
		 M186.5,134.3c7.8,0.5,11.7,0.7,19.5,1c0,2.3,0,3.4-0.1,5.7c-7.8-0.3-11.7-0.5-19.5-1L186.5,134.3z"/>
	<path class="st1" d="M221.5,135.6c3.4,0,5.1,0,8.6,0c5.6,20.4,11.3,40.8,17.2,61.2c-3.3,0.1-4.9,0.2-8.1,0.3
		c-4.6-18.2-9-36.4-13.3-54.6c-4.4,18.2-8.9,36.4-13.4,54.5c-3.3-0.1-4.9-0.2-8.1-0.4C210.2,176.3,215.9,156,221.5,135.6z
		 M213.9,176.4c10,0.3,14.9,0.3,24.9,0.1v5.7c-10,0.2-15,0.2-24.9-0.1C213.9,179.8,213.9,178.6,213.9,176.4z"/>
	<path class="st1" d="M261.6,194.8c-2.6-0.8-4.9-2.4-6.6-4.6c-1.6-2.3-2.4-5-2.3-7.8c0-1.2,0-1.8,0-3c2.7-0.1,4-0.2,6.7-0.4v2.6
		c-0.1,2.6,1.1,5,3.3,6.4c2.1,1.4,5.2,1.9,9.1,1.6c3.7-0.4,6.5-1.5,8.6-3.4c2-1.9,3.1-4.6,2.9-7.3c-0.1-2.6-0.1-3.9-0.2-6.5
		c0.1-2-0.8-3.8-2.4-5c-1.5-1.1-3.7-1.5-6.5-1.2c-4.2,0.4-6.3,0.6-10.5,0.8l-0.1-6.1c4.2-0.3,6.3-0.4,10.5-0.8c2-0.1,3.9-0.8,5.5-2
		c1.3-1.1,1.9-2.8,1.8-4.5l-0.2-6.4c0.1-2.3-1-4.6-2.9-6c-1.8-1.3-4.4-1.8-7.7-1.6c-3.4,0.2-6,1.1-7.8,2.7c-1.9,1.6-2.8,4-2.7,6.5
		l0.1,3c-2.6,0.1-4,0.2-6.6,0.3c0-1.2,0-1.8,0-2.9c-0.1-2.8,0.6-5.6,2-8c1.4-2.3,3.5-4.2,6-5.3c3-1.4,6.2-2.2,9.5-2.3
		c3-0.3,6,0,8.9,1c2.3,0.8,4.3,2.4,5.7,4.5c1.4,2.3,2.2,4.9,2.2,7.6l0.2,6.4c0,1.7-0.5,3.3-1.5,4.6c-1.2,1.8-2.7,3.4-4.5,4.6
		c2.2,0.4,4.1,1.6,5.6,3.3c1.4,1.7,2.2,3.9,2.2,6.1c0.1,2.6,0.1,3.9,0.2,6.4c0.2,3-0.5,5.9-1.9,8.6c-1.4,2.6-3.6,4.7-6.1,6.1
		C275.7,195.9,268.5,196.6,261.6,194.8L261.6,194.8z"/>
	<path class="st1" d="M326.3,186l-2.3-46.7l1.2,0.8c-7.5,16.9-15,33.8-22.7,50.6c-2,0.3-2.9,0.5-4.9,0.8
		c-0.7-19.9-1.5-39.8-2.2-59.7c2.6-0.3,3.9-0.4,6.4-0.7c0.7,16.1,1.3,32.1,1.9,48.2l-1.2-0.9c7.6-16.8,15.1-33.7,22.6-50.6
		c1.8-0.3,2.8-0.4,4.6-0.8c1,19.1,2,38.2,3,57.3C330.2,185.1,328.9,185.4,326.3,186z"/>
	<path class="st1" d="M339.3,125.5c2.7-0.5,4.1-0.8,6.8-1.3c1.1,18.6,2.2,37.2,3.3,55.8c-2.7,0.8-4.1,1.2-6.9,2L339.3,125.5z
		 M346.8,150.1c8.5-2.1,12.6-3.2,20.9-5.6l0.3,4.9c-8.3,2.5-12.5,3.7-20.9,5.8L346.8,150.1z M363.9,120.3c2.7-0.6,4-0.9,6.6-1.6
		c1.2,17.7,2.3,35.3,3.5,53c-2.6,1-4,1.5-6.7,2.4L363.9,120.3z"/>
</g>
</svg>
