<svg xmlns="http://www.w3.org/2000/svg" width="464.51" height="211.26" viewBox="0 0 464.51 211.26"><defs><style>.cls-1{fill:none;}.cls-2{fill:#6063bb;}</style></defs><g id="Layer_2" data-name="Layer 2"><rect class="cls-1" width="433.51" height="211.26"/></g><g id="Layer_1" data-name="Layer 1"><path class="cls-2" d="M28.14,72.33c-2.54-.58-3.81-.88-6.33-1.48q1.31-22.27,2.62-44.54l6.54.32Q29.56,49.49,28.14,72.33ZM26.72,47.15c6.36.83,9.55,1.24,16,2l-.29,4.41c-6.4-.86-9.59-1.31-15.93-2.25ZM44.53,74.93a14.63,14.63,0,0,1-5.26-5.23,11.93,11.93,0,0,1-1.48-6.8c.64-9.77,1-14.66,1.59-24.43a10.68,10.68,0,0,1,2.35-6.31,12.49,12.49,0,0,1,5.89-3.82,25.58,25.58,0,0,1,9-1.07,23.3,23.3,0,0,1,8.82,1.86,11.61,11.61,0,0,1,5.35,4.69A12.47,12.47,0,0,1,72.27,41l-1.8,27a11.71,11.71,0,0,1-2.41,6.79,10.32,10.32,0,0,1-5.92,3.48,21.86,21.86,0,0,1-8.94-.15A25.94,25.94,0,0,1,44.53,74.93Zm14.38-1.6a6.24,6.24,0,0,0,3.53-2,6.68,6.68,0,0,0,1.44-4c.73-10.8,1.09-16.19,1.82-27a7.24,7.24,0,0,0-.89-4.23,7,7,0,0,0-3.21-2.8,14.45,14.45,0,0,0-5.3-1.18,15.08,15.08,0,0,0-5.42.57A7.2,7.2,0,0,0,47.35,35a6.55,6.55,0,0,0-1.42,3.84c-.68,10.18-1,15.26-1.69,25.44a7.27,7.27,0,0,0,.88,4.13,8.59,8.59,0,0,0,3.17,3.1,15.51,15.51,0,0,0,5.24,1.82A13.74,13.74,0,0,0,58.91,73.33Z"/><path class="cls-2" d="M81.35,28.73,88,29,84.52,83c-2.66-.4-4-.61-6.63-1Q79.62,55.34,81.35,28.73Zm2.38,49.1c5.22.74,7.84,1.09,13.1,1.75a7.33,7.33,0,0,0,4.77-.69,3.93,3.93,0,0,0,1.89-3.34c.23-4,.34-5.94.57-9.9a7.31,7.31,0,0,0-.69-3.74,6.22,6.22,0,0,0-2.32-2.55,7.59,7.59,0,0,0-3.4-1.1c-5.05-.43-7.57-.66-12.59-1.14.12-2,.19-3,.31-5,5,.43,7.55.63,12.59,1a5.69,5.69,0,0,0,4.46-1.29,6.23,6.23,0,0,0,1.82-4.43c.19-3.21.28-4.82.47-8a4.18,4.18,0,0,0-1.34-3.58,6.46,6.46,0,0,0-4.19-1.42c-5.06-.2-7.59-.31-12.64-.53l.32-5c5,.17,7.44.25,12.4.4A18,18,0,0,1,106,30.66a9,9,0,0,1,4.14,3.42,8.85,8.85,0,0,1,1.2,5.29L111,47a14,14,0,0,1-1,4.7,8.32,8.32,0,0,1-2.32,3.23,7.06,7.06,0,0,1-3.49,1.53,8.08,8.08,0,0,1,3.77,2,8.73,8.73,0,0,1,2.24,3.73,14.13,14.13,0,0,1,.56,5.13l-.51,9.08a9.08,9.08,0,0,1-1.77,5.23A8.28,8.28,0,0,1,104,84.49a16.87,16.87,0,0,1-6.8.28c-5.53-.75-8.28-1.14-13.76-2C83.54,80.81,83.61,79.81,83.73,77.83Z"/><path class="cls-2" d="M120.85,29.91l6.64.16q-1.42,29-2.86,58c-2.72-.27-4.07-.42-6.78-.72Zm4.57.11c9.68.23,14.53.32,24.23.49-.08,2.2-.13,3.29-.21,5.49-9.73-.22-14.59-.35-24.29-.65Zm-1.33,26.43c8.84.54,13.28.78,22.17,1.19-.09,2.19-.13,3.28-.22,5.47-8.91-.46-13.36-.73-22.22-1.34C123.92,59.64,124,58.58,124.09,56.45Zm-1.32,26c9.88,1,14.84,1.38,24.79,2.08l-.21,5.49c-10-.76-14.95-1.21-24.84-2.25C122.61,85.67,122.67,84.61,122.77,82.48Z"/><path class="cls-2" d="M155.17,84.66l1,.06a4.39,4.39,0,0,0,2.25-.4,3.63,3.63,0,0,0,1.52-1.41,4.53,4.53,0,0,0,.6-2.21l1.6-50,6.66.09-1.44,50.76a9.92,9.92,0,0,1-1.41,5.07,8.26,8.26,0,0,1-3.65,3.24,11,11,0,0,1-5.38.86L155,90.6C155.05,88.22,155.09,87,155.17,84.66ZM166,30.76c8.55.11,12.82.15,21.38.22l-.1,5.64c-8.58-.09-12.87-.15-21.45-.3C165.87,34.1,165.9,33,166,30.76Zm17.31.18c2.66,0,4,0,6.66,0q-.49,30.63-1,61.27c-2.76-.09-4.14-.13-6.9-.24Q182.66,61.48,183.28,30.94Z"/><path class="cls-2" d="M226.46,92.58q-.15-24.83-.28-49.65L227.3,44q-11.78,24.39-24,48.52l-4.7-.09q.31-30.69.64-61.4l6.16,0L205,81l-1.14-1.12q12.23-24.28,23.94-48.82l4.45,0,.57,61.44C230.29,92.54,229,92.56,226.46,92.58Z"/><path class="cls-2" d="M241.53,31,248.2,31l1.14,61.14c-2.76.1-4.14.14-6.9.22Q242,61.66,241.53,31ZM247,62.79c5.84-.12,8.76-.2,14.6-.39a7.4,7.4,0,0,0,3.55-.92A5.44,5.44,0,0,0,267.33,59a8.55,8.55,0,0,0,.66-3.79l-.35-11.76a9.06,9.06,0,0,0-.88-3.87,5.56,5.56,0,0,0-2.3-2.4,7.15,7.15,0,0,0-3.58-.78c-5.75.09-8.63.13-14.39.18l-.1-5.64c5.61,0,8.42-.07,14-.13a16.6,16.6,0,0,1,7.33,1.41,10.86,10.86,0,0,1,4.77,4.26,13.94,13.94,0,0,1,1.82,6.81l.4,11.78a13.16,13.16,0,0,1-1.4,6.76,10.58,10.58,0,0,1-4.58,4.42A17.19,17.19,0,0,1,261.38,68c-5.73.2-8.59.28-14.33.42Z"/><path class="cls-2" d="M283.4,30.52l6.65-.12,2.47,59.14c-2.73.23-4.1.34-6.84.55Zm7,27.21c8.37-.4,12.54-.64,20.86-1.16l.27,5.31c-8.33.59-12.52.85-20.9,1.31ZM307.68,30l6.64-.16,3,57.24c-2.7.31-4.06.45-6.77.74Q309.13,58.93,307.68,30Z"/><path class="cls-2" d="M323.53,29.63l6.63-.19,3.29,55.71c-2.69.36-4,.53-6.72.86Q325.13,57.83,323.53,29.63Zm7.8,50.61c5.31-.64,7.95-1,13.23-1.69A8.27,8.27,0,0,0,348,77.34a5.59,5.59,0,0,0,2.11-2.42,7.18,7.18,0,0,0,.54-3.45c-.25-3.85-.37-5.78-.62-9.64a7,7,0,0,0-1-3.38,4.84,4.84,0,0,0-2.35-2,7.62,7.62,0,0,0-3.57-.43c-5.26.46-7.89.69-13.17,1.1l-.3-5.15c5.14-.36,7.71-.55,12.83-1a18.21,18.21,0,0,1,7.34.75,9.8,9.8,0,0,1,4.84,3.42,10.66,10.66,0,0,1,2,5.86c.25,3.83.38,5.74.63,9.57a10.82,10.82,0,0,1-5.56,10.56,19.46,19.46,0,0,1-7.19,2.39c-5.15.74-7.73,1.1-12.92,1.77Zm38.56-.72c-2.62.47-3.93.7-6.57,1.14q-1.72-26.1-3.46-52.2l6.59-.25Q368.18,53.86,369.89,79.52Z"/><path class="cls-2" d="M405.85,72.18q-1.14-18.39-2.27-36.79l1.13.73c-7.14,13.39-13.87,26.93-20.38,40.65l-4.42.86q-1.68-24.91-3.35-49.83l6.07-.25q1.33,19.86,2.66,39.72l-1.14-.69c6.55-13.54,13.34-26.87,20.57-40l4.36-.22q1.31,22.26,2.62,44.51C409.37,71.37,408.2,71.65,405.85,72.18Zm-1.63-58.33a8.13,8.13,0,0,1-2.72,7c-2,1.72-4.89,2.68-8.69,2.81h-.37c-3.8.13-6.81-.64-9-2.37a9.82,9.82,0,0,1-3.67-7.49h6a6.6,6.6,0,0,0,1.91,4.59A6.23,6.23,0,0,0,392.2,20h.36a5.92,5.92,0,0,0,4.38-1.66,5.7,5.7,0,0,0,1.32-4.45Z"/><path class="cls-2" d="M110.09,125.94c2.68.47,4,.7,6.71,1.15q-1.5,28.74-3,57.48c-2.7-.67-4-1-6.73-1.71q1.24-22.87,2.5-45.75c.14,1,.2,1.56.34,2.6q-7.41,16-15.22,31.8c-2.32-.67-3.48-1-5.78-1.7Q83.49,151.44,78,133.07c.27-1.19.4-1.78.67-3L75.9,173.24c-2.58-.92-3.86-1.39-6.42-2.35L73,118c2.59.65,3.89,1,6.49,1.59q6.44,21.87,12.8,43.75C98.39,151,104.28,138.47,110.09,125.94Z"/><path class="cls-2" d="M138.2,130.23c3.36.43,5,.63,8.41,1q7.13,31.06,14.54,62c-3.22-.4-4.82-.62-8-1.09q-5.6-27.42-11-54.88-7.39,25.19-15.13,50.25c-3.14-.66-4.71-1-7.84-1.73Q129.06,158.16,138.2,130.23Zm-9,38c9.65,1.79,14.52,2.55,24.32,3.84l-.19,5.53c-9.82-1.33-14.71-2.12-24.38-4Z"/><path class="cls-2" d="M169.3,133.39c2.81.22,4.22.32,7,.5L175,194.82c-2.91-.28-4.36-.43-7.27-.75Q168.5,163.73,169.3,133.39Zm6.21.44c7.77.52,11.67.71,19.48,1,0,2.27,0,3.4-.07,5.66-7.83-.28-11.74-.49-19.54-1Z"/><path class="cls-2" d="M210.53,135.16c3.42,0,5.14,0,8.56,0q8.34,30.66,17.19,61.17c-3.26.15-4.89.2-8.14.28Q221.3,169.36,214.8,142q-6.56,27.28-13.45,54.5c-3.25-.11-4.88-.18-8.13-.35Q202.13,165.73,210.53,135.16ZM202.88,176c10,.28,14.93.3,24.88.08l0,5.67c-10,.23-15,.21-24.95-.08C202.86,179.36,202.87,178.22,202.88,176Z"/><path class="cls-2" d="M250.6,194.4a12.69,12.69,0,0,1-6.59-4.57,13.3,13.3,0,0,1-2.33-7.81c0-1.18,0-1.77,0-3,2.69-.14,4-.22,6.74-.4l0,2.57a7.27,7.27,0,0,0,3.3,6.4c2.15,1.39,5.18,1.93,9.07,1.55,3.7-.36,6.55-1.51,8.56-3.4a9.21,9.21,0,0,0,2.87-7.32c-.08-2.6-.12-3.89-.19-6.49a6,6,0,0,0-2.42-5q-2.31-1.63-6.49-1.24c-4.19.38-6.3.55-10.51.84l-.12-6.05c4.2-.28,6.3-.44,10.48-.81a9.21,9.21,0,0,0,5.48-2,5.54,5.54,0,0,0,1.83-4.5l-.19-6.45a7.14,7.14,0,0,0-2.86-6q-2.73-1.95-7.68-1.59c-3.37.24-6,1.14-7.82,2.73a7.92,7.92,0,0,0-2.69,6.47l.05,3c-2.65.15-4,.22-6.64.34,0-1.18,0-1.77,0-2.95a14.84,14.84,0,0,1,2-8,13.92,13.92,0,0,1,6-5.32,25.33,25.33,0,0,1,9.52-2.3,20.91,20.91,0,0,1,8.86,1,11.6,11.6,0,0,1,5.72,4.46,14.34,14.34,0,0,1,2.19,7.61l.2,6.37a8,8,0,0,1-1.48,4.61,18.6,18.6,0,0,1-4.46,4.65,10,10,0,0,1,5.59,3.29,9.72,9.72,0,0,1,2.16,6.08c.09,2.58.13,3.87.22,6.45a16.51,16.51,0,0,1-1.88,8.58,15.46,15.46,0,0,1-6.13,6.08,28.54,28.54,0,0,1-20.29,2.11Z"/><path class="cls-2" d="M315.31,185.57,313,138.92l1.21.83q-11.24,25.37-22.67,50.64c-1.95.34-2.92.5-4.88.82q-1.1-29.85-2.2-59.69c2.58-.28,3.86-.43,6.44-.74q1,24.08,1.93,48.16l-1.23-.86Q303,152.83,314.18,127.5c1.84-.29,2.75-.45,4.58-.76q1.51,28.64,3,57.27C319.2,184.66,317.91,185,315.31,185.57Z"/><path class="cls-2" d="M328.25,125.06c2.72-.51,4.08-.77,6.79-1.32q1.63,27.9,3.28,55.79c-2.74.81-4.12,1.21-6.89,2Zm7.5,24.62c8.46-2.05,12.65-3.18,20.93-5.61L357,149c-8.27,2.53-12.47,3.7-20.94,5.83Zm17.11-29.8c2.67-.63,4-.95,6.65-1.6q1.73,26.5,3.46,53c-2.65,1-4,1.48-6.66,2.42Z"/><text/></g></svg>