<svg id="Layer_1" data-name="Layer 1" xmlns="http://www.w3.org/2000/svg" width="418.67" height="187.62" viewBox="0 0 418.67 187.62"><defs><style>.cls-1{isolation:isolate;}.cls-2{fill:#40373c;}.cls-3{fill:#7c6976;}</style></defs><g class="cls-1"><g class="cls-1"><path class="cls-2" d="M72.7,52.11a47.43,47.43,0,0,0-7.8-4.37,45.23,45.23,0,0,0-4.21,13.34,89.75,89.75,0,0,0-1.25,14.58,47.75,47.75,0,0,0,1,10.92,31.79,31.79,0,0,1,1,5.46,1.07,1.07,0,0,1-.7,1.17,4.55,4.55,0,0,1-1.48.24,13.88,13.88,0,0,1-6.55-2.73,17.44,17.44,0,0,1-4.29-4.92A20.36,20.36,0,0,1,46.11,80a24.65,24.65,0,0,1-.71-5.53,45.25,45.25,0,0,1,2.81-15.21Q51,51.34,53.83,44.46a48.71,48.71,0,0,0-8.58-.78,38.75,38.75,0,0,0-13.26,2A34.86,34.86,0,0,0,23.41,50a19.35,19.35,0,0,0-4.68,4.53,8.39,8.39,0,0,0-1.41,2.57c0,1.15-.26,1.85-.78,2.11s-.73.39-.62.39h-.47a2.43,2.43,0,0,1-2.18-1.33,10.58,10.58,0,0,1-1.17-3,15.15,15.15,0,0,1-.39-3.36V49.61q0-6.07,2.81-9.83a18.36,18.36,0,0,1,6.94-5.69,31.5,31.5,0,0,1,8.89-2.65,60.34,60.34,0,0,1,8.81-.7c1.25,0,2.4,0,3.44.07s2,.14,2.8.24,1.77.21,2.5.31A77.16,77.16,0,0,1,58.66,34c1-2.18,2.27-4.52,3.67-7s2.81-4.76,4.21-6.78a30.79,30.79,0,0,1,4.29-5.07,6.28,6.28,0,0,1,4.06-2,7.36,7.36,0,0,1,4.6,1.48c1.3,1,2,2,2,3,0,.63,0,.94-.08.94h-.47a3,3,0,0,0-1.24.47,8.43,8.43,0,0,0-2.27,2.41,63.18,63.18,0,0,0-3.58,5.93q-2.19,4-5.31,10.84a45.66,45.66,0,0,1,6.24,4.06q.94-3,1.87-5.15a72.47,72.47,0,0,1,5-9.05,40.43,40.43,0,0,1,9.2-9.82,42.35,42.35,0,0,1,13.88-7q8.11-2.34,19-.32a22.59,22.59,0,0,1,11.85,7.49A20.56,20.56,0,0,1,138.69,24a21.43,21.43,0,0,1,1.25,7.64,40.91,40.91,0,0,1-1.09,10.14,64.71,64.71,0,0,1-4.53,12.95,7.48,7.48,0,0,1-.93,2c-.31.62-.58,1.19-.78,1.71q4.21-3.27,7.95-6.39,3.75-3.44,6.87-6.4a12.56,12.56,0,0,0,1.71-1.25c.63-.52,1-.41,1.25.32a5.65,5.65,0,0,1-1.09,2.8c-.83,1.15-1.46,2-1.87,2.5q-2.19,2.66-7.49,8a64.72,64.72,0,0,1-13.26,10.45,66.8,66.8,0,0,1-9.2,10.92,48.63,48.63,0,0,1-9.68,7.17,31.93,31.93,0,0,1-9,3.59,25.37,25.37,0,0,1-8.12.78,12,12,0,0,1-6.08-1.87,15.37,15.37,0,0,1-4.21-4.37q-1.87-2.8-1.72-8.27a29,29,0,0,1,.47-5,15,15,0,0,1-5.3-8A30.11,30.11,0,0,1,72.55,54,11.79,11.79,0,0,1,72.7,52.11Zm47,5.3a74.75,74.75,0,0,0,7-17.63,39.29,39.29,0,0,0,.94-6.86,14.67,14.67,0,0,0-.63-6.08A10.23,10.23,0,0,0,124,22a13.2,13.2,0,0,0-6.09-2.65,25.45,25.45,0,0,0-11.54.78A32.43,32.43,0,0,0,96,25.59q-5.46,4.22-9.83,13.26a38.7,38.7,0,0,0-1.87,4.83,28.16,28.16,0,0,0-1.41,7,17.67,17.67,0,0,0,.63,8.74A57.91,57.91,0,0,1,88.62,51a40.66,40.66,0,0,1,6.7-7.18,32.32,32.32,0,0,1,7.65-5,20.92,20.92,0,0,1,8.27-1.72,10.11,10.11,0,0,1,4.83,1.41,9.49,9.49,0,0,1,3,3.12c.83,1.45,1,3.48.62,6.08a9.17,9.17,0,0,1-.94,2.34,9.46,9.46,0,0,1-1.09,1.72,1.9,1.9,0,0,1-1.56.78,2.12,2.12,0,0,1-1.56-.63l-.93-1.25a2.79,2.79,0,0,0-1.1-1.09,1.88,1.88,0,0,0-1.71-.15,16.15,16.15,0,0,0-3,1.56,51.64,51.64,0,0,0-4.68,3.74,65.37,65.37,0,0,0-5.61,6.08,78.3,78.3,0,0,0-5.46,8.43,18.75,18.75,0,0,0,2,.47,6.9,6.9,0,0,1,1.87.31,39.61,39.61,0,0,0,8.58,0,37,37,0,0,0,8.27-1.41A107,107,0,0,0,119.66,57.41ZM90.49,85.65q2.17.61,6.86-1.56t9.83-8a55.64,55.64,0,0,1-6.55.63,54.07,54.07,0,0,1-6.87.15l-2.49-.31a9.54,9.54,0,0,1-2.34-.31c-1.15,3.53-1.41,5.93-.78,7.17A4.15,4.15,0,0,0,90.49,85.65Z" transform="translate(-8.27 -9.98)"/><path class="cls-2" d="M148.05,70.52a10.26,10.26,0,0,1,.63,1.87,2.41,2.41,0,0,1-.16,1.48,1.91,1.91,0,0,1-1.09,1,5.21,5.21,0,0,1-1.33.16h-1.48a8.43,8.43,0,0,1-5.46-2.81,12.75,12.75,0,0,1-2.42-6.16q-.7-4.12,1.64-11.78A54,54,0,0,1,141,47c1-2.24,2.06-4.39,3.2-6.48l-1.56-.31a8.42,8.42,0,0,1-1.56-.47q-9-3.42-15.29-3.66c-4.16-.16-7.64-.18-10.45-.08-1.77,0-2.55-.29-2.34-.86a4.09,4.09,0,0,1,1.25-1.64A15.22,15.22,0,0,1,119,29.49q3.2-1.87,8.66-1.41A27.63,27.63,0,0,1,138.54,31c1.35.68,2.67,1.4,4,2.18a39,39,0,0,0,4.92,2.42A56.23,56.23,0,0,1,157.33,25,51.63,51.63,0,0,1,166.15,19a35.46,35.46,0,0,1,5.69-1.88,19.67,19.67,0,0,1,6.24-.54,10.17,10.17,0,0,1,5.31,1.87,7.29,7.29,0,0,1,2.73,5.23,11.11,11.11,0,0,1-1.64,7.17,19.71,19.71,0,0,1-6.4,6.4,33.15,33.15,0,0,1-10.53,4.29,41.61,41.61,0,0,1-13.88.7c-.31.62-.63,1.22-.94,1.79s-.62,1.17-.93,1.8a1.64,1.64,0,0,0-.32.62,2.89,2.89,0,0,0-.23.78,2.36,2.36,0,0,1-.39.94,11.24,11.24,0,0,0,1.17-1,6.53,6.53,0,0,1,1.33-1A15.22,15.22,0,0,1,159,43.53a9.93,9.93,0,0,1,5.77.15,8,8,0,0,1,4.84,4.84,13.29,13.29,0,0,1,1.33,5.62,23.32,23.32,0,0,1-.71,6.24,24.66,24.66,0,0,1-3,7,18.51,18.51,0,0,1-5.15,5.46,8.73,8.73,0,0,1-3,1.4,10.21,10.21,0,0,1-3.2.47,7.17,7.17,0,0,1-3.51-.94,6.71,6.71,0,0,1-2.65-2.49,7,7,0,0,1-1-3.36,10.86,10.86,0,0,1,.47-3.59,8.17,8.17,0,0,1,1.64-3,7.71,7.71,0,0,1,2.5-1.79,3.3,3.3,0,0,1,3.43.23c.62.31.72,1,.31,2s-.91,2-1.48,3.12a21.37,21.37,0,0,0-1.33,3c-.31.88,0,1.43.78,1.63s1.59-.72,2.58-2.8a40,40,0,0,0,2.49-7.1A41.59,41.59,0,0,0,161.39,52c.16-2.39-.23-3.84-1.17-4.37s-2.37-.28-4,.71a23.91,23.91,0,0,0-5.07,4.44,24.59,24.59,0,0,0-3.12,3.75c-.21.83-.42,1.66-.62,2.49a9.6,9.6,0,0,0-.31,2.34,24.34,24.34,0,0,0-.08,3.75A20.49,20.49,0,0,0,148.05,70.52Zm23.87-44.31A3.08,3.08,0,0,0,170.59,25a3.49,3.49,0,0,0-3,.31,18,18,0,0,0-4.76,3.59,47.58,47.58,0,0,0-6.55,8.82h1.56A16.3,16.3,0,0,0,165.21,36a15.23,15.23,0,0,0,4.37-3.43,9.53,9.53,0,0,0,2-3.75A7.06,7.06,0,0,0,171.92,26.21Z" transform="translate(-8.27 -9.98)"/><path class="cls-2" d="M207.33,55.7c.63.52.52,1.35-.31,2.49a66.15,66.15,0,0,1-4.13,5.31A44,44,0,0,1,196,70a31,31,0,0,1-8.66,4.68,14.11,14.11,0,0,1-9.36.08,8.59,8.59,0,0,1-5.77-4.92,14.2,14.2,0,0,1-.7-7.72,27.93,27.93,0,0,1,3-8.58,38.8,38.8,0,0,1,5.46-7.8,37,37,0,0,1,4.14-3.82,24.22,24.22,0,0,1,4.75-3,12.63,12.63,0,0,1,5-1.25A8.09,8.09,0,0,1,198.6,39a4.53,4.53,0,0,1,1.87,2.58,8.23,8.23,0,0,1,.15,3.59,13.93,13.93,0,0,1-1.32,4,25.52,25.52,0,0,1-2.42,3.9,13.64,13.64,0,0,1-2.18,2.5l-1.1,1.09a3.71,3.71,0,0,1-1.25.78,16.47,16.47,0,0,1-5.84,2.89c-1.93.47-3.51.8-4.76,1q-.17,3.28,1.25,4.45a5.22,5.22,0,0,0,3.66,1.09,14.31,14.31,0,0,0,5.15-1.33,43.39,43.39,0,0,0,5.54-2.88,38.17,38.17,0,0,0,4.83-3.51,23.87,23.87,0,0,0,3.28-3.28,1.5,1.5,0,0,1,.86-.39A1.41,1.41,0,0,1,207.33,55.7Zm-25-.63a2.63,2.63,0,0,0-.31,1.17,2.69,2.69,0,0,1-.31,1.17c.93-.52,1.74-1,2.42-1.48A13.42,13.42,0,0,0,186,54.45l1.09-1.09a12.61,12.61,0,0,0,2.19-2.66A17.22,17.22,0,0,0,191,47.19a2.73,2.73,0,0,0-.15-2.73c-.32-.52-.86-.54-1.64-.07a9.36,9.36,0,0,0-2.42,2.26,26.93,26.93,0,0,0-2.5,3.82A20.69,20.69,0,0,0,182.37,55.07Z" transform="translate(-8.27 -9.98)"/><path class="cls-2" d="M205.3,74.42q-3.9-.63-5.38-2.58A3.54,3.54,0,0,1,199.3,68c.57-1.25,1.9-3.85,4-7.8a92.3,92.3,0,0,1,5.54-8.5,50.79,50.79,0,0,1,3.82-4.06c1.56-1.5,3.33-3,5.31-4.6A37.39,37.39,0,0,1,224.33,39a1.52,1.52,0,0,1,.79-.39,1.38,1.38,0,0,0,.78-.39,10.91,10.91,0,0,1,2.73-.62,2.9,2.9,0,0,1,2.57,1.09,4.24,4.24,0,0,1,1.17,4.06A15.16,15.16,0,0,1,231,46.34l-1,2.34q-.56,1.24-1.17,2.49c-.31.84-.65,1.72-1,2.65s-.7,1.82-1,2.66a36.1,36.1,0,0,0-1.48,9.43,10.78,10.78,0,0,0,2.11,7.26,3.49,3.49,0,0,1,.46,1.17c.11.47-.1.8-.62,1s-1.38.44-2.26.7a12.57,12.57,0,0,1-3,.47,16.59,16.59,0,0,1-3.51-.23,11,11,0,0,1-3.74-1.41,1.86,1.86,0,0,1-.94-1.17,4.94,4.94,0,0,0-.31-1,48.46,48.46,0,0,1,.08-6,42.55,42.55,0,0,1,2.1-10.06c.21-.72.47-1.53.78-2.42a19.16,19.16,0,0,1,1.25-2.73v-.31c-.21-.1-.36-.1-.47,0a35.59,35.59,0,0,0-3.51,3,21,21,0,0,0-3.19,3.9,21.72,21.72,0,0,0-3.12,7.64c-.21,1.25-.37,2.42-.47,3.51s-.16,2-.16,2.57a4.06,4.06,0,0,1-.15,1.41,6.77,6.77,0,0,1-.94,1.25C205.56,74.52,205.41,74.52,205.3,74.42Z" transform="translate(-8.27 -9.98)"/><path class="cls-2" d="M267.23,41.81a3.3,3.3,0,0,1-.15,3q-.78,1.24-1.8,3.12A29.45,29.45,0,0,0,263.49,52c-.42.84-.81,1.69-1.17,2.58a19.38,19.38,0,0,0-.86,2.57,28.77,28.77,0,0,0-1.56,9.13,11.37,11.37,0,0,0,2,7.09,5.64,5.64,0,0,1,.55,1.1c.15.41,0,.72-.55.93s-1.4.44-2.34.7a13.72,13.72,0,0,1-3,.47,16.59,16.59,0,0,1-3.51-.23,11.07,11.07,0,0,1-3.75-1.41,2.69,2.69,0,0,1-1.09-2,29.63,29.63,0,0,1-.15-3.36,36.42,36.42,0,0,1,.46-5.22c-1.14,1.76-2.31,3.43-3.51,5A18.9,18.9,0,0,1,241.34,73,4.74,4.74,0,0,1,239,74.26a3,3,0,0,1-1.56.47c-3.95.31-6.69-1-8.19-4.06s-1.38-7.49.39-13.41a4.79,4.79,0,0,1,.62-1.72.71.71,0,0,1,.08-.31.71.71,0,0,0,.08-.31,80.31,80.31,0,0,1,5.07-11.63,52.94,52.94,0,0,1,2.73-4.6,2,2,0,0,1,2.34-.93,6.76,6.76,0,0,1,2,.62,5.9,5.9,0,0,1,2.18,1.25,7.91,7.91,0,0,1,1.56,1.87,3.07,3.07,0,0,1,0,3.28c-.52.83-1.09,1.87-1.72,3.12s-1.24,2.6-1.87,4.05c-.21.52-.41,1-.62,1.48s-.42,1-.62,1.49c0,.1,0,.15-.08.15s-.08.06-.08.16c-.11.52-.29,1.27-.55,2.26a15.31,15.31,0,0,0-.47,3,8.59,8.59,0,0,0,.24,2.66,1.61,1.61,0,0,0,1.4,1.32.65.65,0,0,0,.47-.15,9.07,9.07,0,0,0,2.73-2.34,42.52,42.52,0,0,0,3.35-4.45c1.15-1.72,2.27-3.48,3.36-5.3s2-3.46,2.88-4.92q.94-1.71,2.5-4a23.34,23.34,0,0,1,3.43-4h.16a3.71,3.71,0,0,1,1.4-.94,1.47,1.47,0,0,1,.94,0c.31.1.67.23,1.09.39a4.33,4.33,0,0,1,1.4,1,.14.14,0,0,0,.16.16l.31.16.94,1.4v.16A.13.13,0,0,1,267.23,41.81Z" transform="translate(-8.27 -9.98)"/><path class="cls-2" d="M282.83,59.44c.52.42.52,1.09,0,2A26.39,26.39,0,0,1,281,64.35a18.51,18.51,0,0,0-1.71,2.73c-.42.84-.26,1.41.46,1.72.52.21,1.23-.21,2.11-1.25a30.61,30.61,0,0,0,2.81-4c1-1.67,2-3.54,3-5.62s1.82-4.06,2.5-5.93a22.27,22.27,0,0,0,1.25-5c.15-1.46,0-2.39-.55-2.81q-1.41-.93-4.21.94a32.74,32.74,0,0,0-5.85,5.22A47.31,47.31,0,0,0,275.11,58a26.75,26.75,0,0,0-3.35,8.42,73.65,73.65,0,0,0-2.89,16.22,45.36,45.36,0,0,0,.08,7.8,6.8,6.8,0,0,1,.16,1.56.7.7,0,0,1,0,.63l-.32.62A4.34,4.34,0,0,1,265,94.7a8.24,8.24,0,0,1-2.57-.63,6.93,6.93,0,0,1-1.87-1.25,8.84,8.84,0,0,1-1.41-1.4c-.31-.42-.57-.78-.78-1.09,0-.11,0-.16-.15-.16l-.32-.62a15.56,15.56,0,0,1-.39-7,74.82,74.82,0,0,1,1.88-9.67c.88-3.44,1.92-6.89,3.12-10.38s2.36-6.57,3.51-9.28a99.37,99.37,0,0,1,4.75-10.37,44,44,0,0,1,2.42-4.14,2,2,0,0,1,2.34-.93,9.86,9.86,0,0,1,2.19.62l.78.39a7.89,7.89,0,0,1,1.24.86,6,6,0,0,1,1.72,1.87,2.93,2.93,0,0,1-.16,3.28q-.31.31,0-.24t0,.24A21.86,21.86,0,0,1,284,42.51a18.26,18.26,0,0,1,3.51-1.95,10.45,10.45,0,0,1,4.06-.78,9.69,9.69,0,0,1,4.37,1.1,4.82,4.82,0,0,1,2.49,3.35,18.12,18.12,0,0,1,.47,5.46,31.17,31.17,0,0,1-1,6.32,57.24,57.24,0,0,1-1.8,5.77,31.39,31.39,0,0,1-3.9,6.63,16.18,16.18,0,0,1-5.92,4.76,10.22,10.22,0,0,1-3.12,1.09,9,9,0,0,1-3.12.08,7.69,7.69,0,0,1-3.44-1.48,5.61,5.61,0,0,1-2.34-2.81,9,9,0,0,1-.54-3.51,8.56,8.56,0,0,1,.86-3.43,10,10,0,0,1,2-2.89,8.84,8.84,0,0,1,2.73-1.4A3.64,3.64,0,0,1,282.83,59.44Z" transform="translate(-8.27 -9.98)"/><path class="cls-2" d="M309.2,61.47c-.63,2.81-1.3,6.08-2,9.83v.46a3.75,3.75,0,0,1-.16,1.41,3.39,3.39,0,0,1-.93,1.09c-.21.1-.37.1-.47,0q-3.9-.47-5.07-1.33a8,8,0,0,1-2-2,7.58,7.58,0,0,1-1.09-2.66,10.75,10.75,0,0,1-.16-3.19q.63-3.9,1.48-7.26a48.32,48.32,0,0,1,2.11-6.39q1.24-3,2.73-6.09c1-2,2.1-4.24,3.35-6.63a2.12,2.12,0,0,1,2.42-.93,7,7,0,0,1,2.11.62l.86.39a6.26,6.26,0,0,1,1.32.86,7.68,7.68,0,0,1,1.56,1.87,2.93,2.93,0,0,1-.15,3.28,13.19,13.19,0,0,0-1.25,2.49,44.88,44.88,0,0,0-2.19,5.46q3.44.47,8,.63h.93a65,65,0,0,1,4.53-10.14q2.49-4.36,2.81-4.68a2,2,0,0,1,2.34-.94,10.31,10.31,0,0,1,2.18.62l.78.47a4.93,4.93,0,0,1,1.25.78,6.26,6.26,0,0,1,1.72,1.87,2.93,2.93,0,0,1-.16,3.28c-.52.83-1.09,1.87-1.72,3.12s-1.24,2.6-1.87,4.06a19.08,19.08,0,0,0-1.09,2.65l-.94,2.49a29,29,0,0,0-1.56,9.21,11.28,11.28,0,0,0,2,7l.47,1.09c.21.41,0,.73-.47.94l-2.34.78a20.35,20.35,0,0,1-3,.46,20.67,20.67,0,0,1-3.43-.31,11.26,11.26,0,0,1-3.75-1.4,1.89,1.89,0,0,1-.94-1.09,4.26,4.26,0,0,0-.31-.94,34.73,34.73,0,0,1,0-6.71,38.83,38.83,0,0,1,1.25-5.93q-3.58.78-7.18,1.25A13.45,13.45,0,0,1,309.2,61.47Z" transform="translate(-8.27 -9.98)"/><path class="cls-2" d="M347.1,54.45v.15c0,.11-.05.16-.15.16v.31a3.7,3.7,0,0,0,.93-.47,6.76,6.76,0,0,1,1.25-.93,30.91,30.91,0,0,1,5.93-2,12.08,12.08,0,0,1,5.77.16,7.2,7.2,0,0,1,4.84,3.74A9,9,0,0,1,367,60a13.57,13.57,0,0,1-.71,4.75,17.71,17.71,0,0,1-3,5.39,16.85,16.85,0,0,1-5.15,4.29,8.59,8.59,0,0,1-3,1.09,16.29,16.29,0,0,1-3.36.31,10.74,10.74,0,0,1-3.66-.62,6.82,6.82,0,0,1-2.66-2,4.73,4.73,0,0,1-1-2.58,6.4,6.4,0,0,1,.47-2.73,5.82,5.82,0,0,1,1.64-2.34A7.71,7.71,0,0,1,349.13,64a4.53,4.53,0,0,1,3.75.24c.62.21.72.7.31,1.48a15.68,15.68,0,0,1-1.64,2.42,9.85,9.85,0,0,0-1.48,2.34c-.31.72-.05,1.14.78,1.24s1.9-.64,2.89-2.26a28.5,28.5,0,0,0,3.74-11.39c.15-1.82-.23-2.93-1.17-3.35s-2.42-.23-4.14.55A21.53,21.53,0,0,0,347,58.82a20.87,20.87,0,0,0-3.12,2.8c-.21.73-.42,1.41-.62,2a5.88,5.88,0,0,0-.32,1.87,15.37,15.37,0,0,0-.07,2.89,11.7,11.7,0,0,0,1,4.13,8.14,8.14,0,0,1,.62,1.56,1.34,1.34,0,0,1-.15,1.1,2.36,2.36,0,0,1-1.09.78,5.71,5.71,0,0,1-1.33.15H340.4a11.3,11.3,0,0,1-5.46-2,9.71,9.71,0,0,1-2.42-5q-.7-3.27,1.64-9.2,1.39-4.36,1.56-4.68a87.6,87.6,0,0,1,5-11.86,55.3,55.3,0,0,1,2.81-4.83,2,2,0,0,1,2.34-.94,10.31,10.31,0,0,1,2.18.62l.78.47a4.93,4.93,0,0,1,1.25.78,6,6,0,0,1,1.72,2,2.93,2.93,0,0,1-.16,3.28c-.52.93-1.09,2-1.72,3.27s-1.24,2.65-1.87,4.21C347.73,53,347.42,53.72,347.1,54.45Zm39-15.76-.77-.47a10.45,10.45,0,0,0-2.19-.62,2,2,0,0,0-2.34.94c-.21.21-1.14,1.77-2.81,4.68a81.69,81.69,0,0,0-5,11.54A47.73,47.73,0,0,0,370,66a34.73,34.73,0,0,0,0,6.71,5.68,5.68,0,0,1,.31.94,1.82,1.82,0,0,0,.94,1.09,11.13,11.13,0,0,0,3.74,1.4,20.77,20.77,0,0,0,3.43.31,20.35,20.35,0,0,0,3-.46l2.34-.78c.52-.21.68-.53.47-.94l-.47-1.09a11.27,11.27,0,0,1-2-7,29,29,0,0,1,1.56-9.21l.93-2.49a19.11,19.11,0,0,1,1.1-2.65c.62-1.46,1.24-2.81,1.87-4.06s1.19-2.29,1.71-3.12a2.93,2.93,0,0,0,.16-3.28,6.14,6.14,0,0,0-1.72-1.87A4.76,4.76,0,0,0,386.1,38.69Z" transform="translate(-8.27 -9.98)"/><path class="cls-2" d="M426.66,41.81a3.3,3.3,0,0,1-.15,3q-.78,1.24-1.8,3.12A29.45,29.45,0,0,0,422.92,52c-.42.84-.81,1.69-1.17,2.58a18,18,0,0,0-.86,2.57,28.77,28.77,0,0,0-1.56,9.13,11.37,11.37,0,0,0,2,7.09,5.64,5.64,0,0,1,.55,1.1c.15.41,0,.72-.55.93s-1.4.44-2.34.7a13.72,13.72,0,0,1-3,.47,16.59,16.59,0,0,1-3.51-.23,11.07,11.07,0,0,1-3.75-1.41,2.69,2.69,0,0,1-1.09-2,29.63,29.63,0,0,1-.15-3.36,36.42,36.42,0,0,1,.46-5.22c-1.14,1.76-2.31,3.43-3.51,5A18.9,18.9,0,0,1,400.77,73a4.74,4.74,0,0,1-2.34,1.25,3,3,0,0,1-1.56.47c-3.95.31-6.69-1-8.19-4.06s-1.38-7.49.39-13.41a4.79,4.79,0,0,1,.62-1.72.71.71,0,0,1,.08-.31.71.71,0,0,0,.08-.31,79.22,79.22,0,0,1,5.07-11.63,52.94,52.94,0,0,1,2.73-4.6,2,2,0,0,1,2.34-.93,6.76,6.76,0,0,1,2,.62,5.9,5.9,0,0,1,2.18,1.25,7.91,7.91,0,0,1,1.56,1.87,3.11,3.11,0,0,1,0,3.28c-.52.83-1.09,1.87-1.72,3.12s-1.24,2.6-1.87,4.05c-.21.52-.41,1-.62,1.48s-.42,1-.63,1.49c0,.1,0,.15-.07.15s-.08.06-.08.16c-.11.52-.29,1.27-.55,2.26a15.31,15.31,0,0,0-.47,3,8.59,8.59,0,0,0,.24,2.66,1.61,1.61,0,0,0,1.4,1.32.65.65,0,0,0,.47-.15,9.07,9.07,0,0,0,2.73-2.34,42.52,42.52,0,0,0,3.35-4.45c1.15-1.72,2.27-3.48,3.36-5.3s2.05-3.46,2.88-4.92q.94-1.71,2.5-4a23.34,23.34,0,0,1,3.43-4h.16a3.71,3.71,0,0,1,1.4-.94,1.47,1.47,0,0,1,.94,0c.31.1.67.23,1.09.39a4.33,4.33,0,0,1,1.4,1,.14.14,0,0,0,.16.16l.31.16.94,1.4v.16A.13.13,0,0,1,426.66,41.81ZM425,32.92c1.14.73,1,1.27-.47,1.64a19.4,19.4,0,0,1-5.77.31,27.42,27.42,0,0,1-7.33-1.56,8.75,8.75,0,0,1-5.15-4,6.67,6.67,0,0,1-.94-3.51,5.1,5.1,0,0,1,.78-2.26,5.85,5.85,0,0,1,2-1.72,5.2,5.2,0,0,1,1.95-.7,2.54,2.54,0,0,1,1.17.08c.31-.31.57-.21.78.31a17.6,17.6,0,0,0,3.43,6.4,15.1,15.1,0,0,0,4,3.2,11.44,11.44,0,0,0,3.51,1.24A5.84,5.84,0,0,1,425,32.92Z" transform="translate(-8.27 -9.98)"/></g><g class="cls-1"><path class="cls-2" d="M134.48,165.05a9.13,9.13,0,0,0,1.09,1.72,3.71,3.71,0,0,1,.47,1.17c.1.47-.11.8-.63,1s-1.38.44-2.26.7a12.56,12.56,0,0,1-3,.47,8.11,8.11,0,0,1-2.42-.15,14.94,14.94,0,0,1-2.65-1.33,1.8,1.8,0,0,1-.94-1.17,5.41,5.41,0,0,0-.31-1,46.52,46.52,0,0,1,.08-6,42.05,42.05,0,0,1,2.1-10.06c.21-.73.47-1.53.78-2.42a18.12,18.12,0,0,1,1.25-2.73q.61-2.18-2.65-.47a33.42,33.42,0,0,0-3.51,3,21.07,21.07,0,0,0-3.2,3.9,21.72,21.72,0,0,0-3.12,7.64c-.21,1.25-.37,2.42-.47,3.51s-.15,2-.15,2.57a4,4,0,0,1-.16,1.41,6.35,6.35,0,0,1-.94,1.25c-.21.1-.36.1-.46,0-2.61-.42-4.4-1.28-5.39-2.58a3.56,3.56,0,0,1-.62-3.82q.86-1.87,4-7.8a90.14,90.14,0,0,1,5.54-8.5,49,49,0,0,1,3.82-4.06c1.56-1.5,3.32-3,5.3-4.6a37.47,37.47,0,0,1,6.4-4.06,1.48,1.48,0,0,1,.78-.39,1.38,1.38,0,0,0,.78-.39,10.91,10.91,0,0,1,2.73-.62,2.9,2.9,0,0,1,2.57,1.09,4.24,4.24,0,0,1,1.17,4.06,15.18,15.18,0,0,1-1.32,3.59c-.32.73-.63,1.51-.94,2.34l-.94,1.87q1.25-1.41,3-3.12c1.56-1.46,3.32-3,5.3-4.53a36.82,36.82,0,0,1,6.4-4.05,1.35,1.35,0,0,1,.78-.39,1.38,1.38,0,0,0,.78-.39,11.37,11.37,0,0,1,2.73-.63,2.88,2.88,0,0,1,2.57,1.1,4.12,4.12,0,0,1,1.17,4,19,19,0,0,1-1.32,3.67l-1,2.34c-.36.83-.75,1.67-1.17,2.5s-.65,1.71-1,2.65-.7,1.82-1,2.65a36.17,36.17,0,0,0-1.48,9.44,10.76,10.76,0,0,0,2.11,7.25,3.71,3.71,0,0,1,.47,1.17.84.84,0,0,1-.63,1c-.62.2-1.38.44-2.26.7a13.1,13.1,0,0,1-3,.47,16.54,16.54,0,0,1-3.51-.24,11.26,11.26,0,0,1-3.75-1.4,1.81,1.81,0,0,1-.93-1.17,4.76,4.76,0,0,0-.32-1,48.3,48.3,0,0,1,.08-6,42.54,42.54,0,0,1,2.11-10.06c.2-.73.46-1.54.78-2.42a16.78,16.78,0,0,1,1.25-2.73v-.31c-.21-.11-.37-.11-.47,0a33.27,33.27,0,0,0-3.51,3,22.3,22.3,0,0,0-6.32,11.54c-.21,1.25-.37,2.4-.47,3.44S134.48,164.43,134.48,165.05Z" transform="translate(-8.27 -9.98)"/><path class="cls-2" d="M190.48,147a46,46,0,0,0-2.81,7.48A24.15,24.15,0,0,0,186.5,162a11.79,11.79,0,0,0,2.26,6.63l.31.62a1,1,0,0,1,0,1.1c-.21.62-.88.83-2,.62a11.47,11.47,0,0,1-5.15-1.09,8.5,8.5,0,0,1-3.43-2.81,9.3,9.3,0,0,1-1.56-5.77,28.34,28.34,0,0,1-6.24,5.93,10.11,10.11,0,0,1-8.12,1.56,6.66,6.66,0,0,1-4.44-2.58,8.94,8.94,0,0,1-1.48-4.6,17.73,17.73,0,0,1,.7-5.77,42.9,42.9,0,0,1,2.18-6.09,49.52,49.52,0,0,1,2.89-5.53,38.21,38.21,0,0,1,2.81-4.14,33.73,33.73,0,0,1,5.53-5.77,9.06,9.06,0,0,1,7.1-2.34l1.64.39a5.75,5.75,0,0,1,4,4.21,9.58,9.58,0,0,1-.31,4.14v.15h.15a3.1,3.1,0,0,1,3.28-.31.43.43,0,0,0,.31.16,6.61,6.61,0,0,1,3.43,3.74A3,3,0,0,1,190.48,147Zm-11.7,3.74c.31-1.14.67-2.29,1.09-3.43s.88-2.29,1.4-3.43a9.44,9.44,0,0,1-1.63,1.32,3.83,3.83,0,0,1-2.11.55c-.94,0-1.46-.16-1.56-.47a2,2,0,0,1,0-1.56l.47-.47.15-.15a6.24,6.24,0,0,0,1-2.5,2.3,2.3,0,0,0-1-2.65,2.64,2.64,0,0,0-3,.31,14.06,14.06,0,0,0-3.43,3.28,28.26,28.26,0,0,0-3.12,5,20.12,20.12,0,0,0-1.87,5.3,7.51,7.51,0,0,0,.31,4.37c.52,1.25,1.66,1.93,3.43,2a7.34,7.34,0,0,0,4.29-1.48A43.71,43.71,0,0,0,178,153.2a4,4,0,0,0,.39-1.25A3.77,3.77,0,0,1,178.78,150.7Z" transform="translate(-8.27 -9.98)"/><path class="cls-2" d="M206.47,147.81a3.16,3.16,0,0,1-.86,2.27l-.31.15a3,3,0,0,1-1.72.94,7,7,0,0,1-3.43-.31,5.88,5.88,0,0,1-3.51-3,12.49,12.49,0,0,1-.7-10.76,8.37,8.37,0,0,1,3.9-4.37,15.11,15.11,0,0,1,4.68-1.72,9,9,0,0,1,4,.32,2.35,2.35,0,0,1,.86.15,5,5,0,0,1,.86.47,10.63,10.63,0,0,1,3.74,2.5,12.11,12.11,0,0,1,1.95,2.88,11.84,11.84,0,0,1,.94,2.65,3.66,3.66,0,0,1,.08,1.64,6.12,6.12,0,0,1-.16,3.59,14.17,14.17,0,0,1-3.27,5,17,17,0,0,1-7.34,4.21,46.65,46.65,0,0,0-5.77,2.5,25.5,25.5,0,0,0-3.51,2.11c-1.09.78-1.53,1.53-1.32,2.26s1.32,1.07,3,.7a28.08,28.08,0,0,0,5.69-1.95,40.15,40.15,0,0,0,6.09-3.43,12.49,12.49,0,0,0,4.05-4.06,4.27,4.27,0,0,1,1.87-1.25c.21.11.44.21.71.32s.33.41.23.93a8.24,8.24,0,0,1,0,3.28,13.53,13.53,0,0,1-2.11,5.22,21.46,21.46,0,0,1-5.38,5.62q-3.58,2.73-10.61,4.29a13.29,13.29,0,0,1-5.61.31,6.78,6.78,0,0,1-3.67-1.64c-1-.88-1.32-2.41-1-4.6a10.28,10.28,0,0,1,2.49-5.54,19.68,19.68,0,0,1,4.68-3.82,25.67,25.67,0,0,1,5.07-2.34c1.61-.52,3-1,4.14-1.4a4.76,4.76,0,0,0,2.34-1.72A7.86,7.86,0,0,0,209,147.5a20.08,20.08,0,0,0,.55-3.12,9.78,9.78,0,0,0-.16-3v-.16l.16-.15a9.69,9.69,0,0,0-1.87-3.51c-.73-.78-1.41-.86-2-.24a3.39,3.39,0,0,0-1.17,1.95,10.67,10.67,0,0,0,.23,4.84,3.57,3.57,0,0,0,.78,1.48A3.88,3.88,0,0,1,206.47,147.81Z" transform="translate(-8.27 -9.98)"/><path class="cls-2" d="M252.25,147a46,46,0,0,0-2.8,7.48,23.58,23.58,0,0,0-1.17,7.57,11.79,11.79,0,0,0,2.26,6.63l.31.62a1,1,0,0,1,0,1.1c-.21.62-.89.83-2,.62a11.5,11.5,0,0,1-5.15-1.09,8.57,8.57,0,0,1-3.43-2.81,9.3,9.3,0,0,1-1.56-5.77,28.34,28.34,0,0,1-6.24,5.93,10.09,10.09,0,0,1-8.11,1.56,6.7,6.7,0,0,1-4.45-2.58,9,9,0,0,1-1.48-4.6,18,18,0,0,1,.7-5.77,41.74,41.74,0,0,1,2.19-6.09,49.49,49.49,0,0,1,2.88-5.53,39.72,39.72,0,0,1,2.81-4.14,33.81,33.81,0,0,1,5.54-5.77,9,9,0,0,1,7.1-2.34l1.63.39a4.91,4.91,0,0,1,2,1,4.82,4.82,0,0,1,2,3.2,9.58,9.58,0,0,1-.31,4.14v.15h.16a3.08,3.08,0,0,1,3.27-.31.45.45,0,0,0,.31.16,6.63,6.63,0,0,1,3.44,3.74A3,3,0,0,1,252.25,147Zm-11.7,3.74c.32-1.14.68-2.29,1.09-3.43s.89-2.29,1.41-3.43a9.5,9.5,0,0,1-1.64,1.32,3.79,3.79,0,0,1-2.11.55c-.93,0-1.45-.16-1.56-.47a2.08,2.08,0,0,1,0-1.56l.47-.47.16-.15a6.4,6.4,0,0,0,1-2.5,2.31,2.31,0,0,0-1-2.65,2.66,2.66,0,0,0-3,.31A14.42,14.42,0,0,0,232,141.5a29.48,29.48,0,0,0-3.12,5,20.49,20.49,0,0,0-1.87,5.3,7.59,7.59,0,0,0,.31,4.37c.52,1.25,1.67,1.93,3.43,2a7.3,7.3,0,0,0,4.29-1.48,43.71,43.71,0,0,0,4.76-3.51,3.77,3.77,0,0,0,.39-1.25A3.77,3.77,0,0,1,240.55,150.7Z" transform="translate(-8.27 -9.98)"/><path class="cls-2" d="M278.46,133.54a2.85,2.85,0,0,1,.94,1.4,8.76,8.76,0,0,1,.46,2,9.69,9.69,0,0,1-.15,3c-.11.62-.21,1.19-.31,1.71s-.21,1-.32,1.41a2,2,0,0,1-.46.93h-.16a2.47,2.47,0,0,1-.62.47q-3.13,2.34-5.85,4.76a59.31,59.31,0,0,0-4.84,4.76c-1.4,1.56-2.63,3-3.67,4.36s-1.87,2.45-2.49,3.28h1.56c1,.21,2.31.52,3.82.94a10.85,10.85,0,0,1,4.45,2.65,19,19,0,0,1,2.57,3.2,14.33,14.33,0,0,1,2.11,7.25,19.2,19.2,0,0,1-.24,4.68,20.29,20.29,0,0,1-1,3.59,16.25,16.25,0,0,1-1.17,2.42,9.8,9.8,0,0,1-.7,1,17.58,17.58,0,0,1-1,1.48c-.36.47-.65.86-.86,1.17a33.12,33.12,0,0,1-6.94,5,21.68,21.68,0,0,1-9.28,2.5q-5.92.47-8.89-2.11a12,12,0,0,1-3.9-6.31,19,19,0,0,1-.39-7.49,14.32,14.32,0,0,1,1.64-5.46,32.32,32.32,0,0,0-5.46.47c-1.77.2-3.75.52-5.93.93a55.12,55.12,0,0,0-7,1.87c-1,.42-2.13.84-3.28,1.25s-2.23.89-3.59,1.41-2.75,1.14-4.21,1.87c-.93.52-2.31,1.19-4.13,2s-3.88,1.69-6.16,2.57a59.25,59.25,0,0,1-7.26,2.26,30.2,30.2,0,0,1-7.25.94q-7.8.15-10.92-3.67a11.32,11.32,0,0,1-2.19-9.44c.11-.2.32-.54.63-1s.83-.49,1.56-.08a25.53,25.53,0,0,0,2.65,1.09,17.11,17.11,0,0,0,4.37.86,44.35,44.35,0,0,0,6.55,0,62.5,62.5,0,0,0,9.05-1.32q6.07-1.26,10.53-2.5c3-.83,5.85-1.59,8.66-2.26s5.72-1.28,8.73-1.8,6.61-.93,10.77-1.24a20.66,20.66,0,0,1,4.52.15,13.56,13.56,0,0,1,3.12.94,1.76,1.76,0,0,1,1.09,2.18,18.43,18.43,0,0,1-.93,3.9,10.58,10.58,0,0,0-.55,4.53,5.1,5.1,0,0,0,2.34,3.66c1.4,1,3.93,1.48,7.57,1.48a18.1,18.1,0,0,0,4.05-.78,32.2,32.2,0,0,0,3.82-1.71,15.48,15.48,0,0,0,4.14-3.28,19.25,19.25,0,0,0,1.95-2.88,7.35,7.35,0,0,0,.86-4.14,5.07,5.07,0,0,0-.94-3.12,7.44,7.44,0,0,0-2.11-1.95,8.69,8.69,0,0,0-2.49-1A10.06,10.06,0,0,0,263,168a12.65,12.65,0,0,0-5.23,1.32,5.49,5.49,0,0,0-2.89,3.82c-.1.32-.26.5-.46.55a2.38,2.38,0,0,1-.47.08,7.49,7.49,0,0,1-3.51-1.87,4.3,4.3,0,0,1-1.33-3.59,5.47,5.47,0,0,1,2.42-4.6,11.81,11.81,0,0,1,5.38-1.8,6.26,6.26,0,0,1-.23-3.51,21.26,21.26,0,0,1,.86-3l.93-2.18a17,17,0,0,1,1.25-2.34,8.42,8.42,0,0,1,.7-1.17l.7-1c2.4-3.64,4.42-6.55,6.09-8.73a.66.66,0,0,1-.47.15,5.93,5.93,0,0,1-2.18.16h-.32a37,37,0,0,1-5.3,6,14.34,14.34,0,0,1-7.18,3.67,2.61,2.61,0,0,1-2.34-.86,5.51,5.51,0,0,1-1.24-1.95,2.35,2.35,0,0,1-.32-.93.89.89,0,0,1,.32-.94.47.47,0,0,1,.31-.16,3.11,3.11,0,0,0,1.25.16.72.72,0,0,0,.54.08,1.82,1.82,0,0,1,.55-.08h.47a7.19,7.19,0,0,0,2.65-.94,30.21,30.21,0,0,0,2.81-2,19.53,19.53,0,0,0,3.43-3.9.83.83,0,0,1-.39-.32,1.53,1.53,0,0,0-.24-.31,7.19,7.19,0,0,1-1.4-3.12,14.67,14.67,0,0,1-.7-5.15,11.15,11.15,0,0,1,1.17-4.91,7.42,7.42,0,0,1,3.12-3.2c1.35-.72,3.06-.72,5.15,0a5.31,5.31,0,0,1,2.8,2.11,5.72,5.72,0,0,1,.78,3,10,10,0,0,1-.62,3.36,22.53,22.53,0,0,1-1.4,3.12l-.32.62a5.4,5.4,0,0,1-.31.55,4.31,4.31,0,0,0-.31.54,2.44,2.44,0,0,0,1.87-.15l1.8-.71c.67-.25,1.48-.54,2.41-.85a11,11,0,0,1,2.42-.39A3.09,3.09,0,0,1,278.46,133.54ZM264,132.14a8.88,8.88,0,0,0,1-1.33,6.41,6.41,0,0,0,.78-1.72,2.93,2.93,0,0,0,.07-1.48,1.07,1.07,0,0,0-.93-.78,1,1,0,0,0-1.17.47,8.71,8.71,0,0,0-.7,1.4,3.49,3.49,0,0,0,.31,2.5A3.63,3.63,0,0,0,264,132.14Z" transform="translate(-8.27 -9.98)"/><path class="cls-2" d="M314.34,135.41a3.33,3.33,0,0,1-.16,3c-.52.83-1.12,1.87-1.79,3.12a28.31,28.31,0,0,0-1.8,4.05c-.41.84-.8,1.69-1.17,2.58a17.94,17.94,0,0,0-.85,2.57,28.77,28.77,0,0,0-1.56,9.13,11.31,11.31,0,0,0,2,7.09,6.26,6.26,0,0,1,.54,1.1c.16.41,0,.72-.54.93s-1.41.44-2.34.7a13.72,13.72,0,0,1-3.05.47,16.59,16.59,0,0,1-3.51-.23,11,11,0,0,1-3.74-1.41,2.64,2.64,0,0,1-1.09-2,27,27,0,0,1-.16-3.36,36.63,36.63,0,0,1,.47-5.22q-1.72,2.66-3.51,5a19.21,19.21,0,0,1-3.67,3.74,4.66,4.66,0,0,1-2.34,1.25,3,3,0,0,1-1.56.47q-5.93.46-8.19-4.06t.39-13.41a4.8,4.8,0,0,1,.63-1.72.6.6,0,0,1,.08-.31.7.7,0,0,0,.07-.31,80.31,80.31,0,0,1,5.07-11.63c1.61-2.85,2.52-4.39,2.73-4.6a2,2,0,0,1,2.34-.93,6.66,6.66,0,0,1,2,.62,5.86,5.86,0,0,1,2.19,1.25,8.16,8.16,0,0,1,1.56,1.87,3.11,3.11,0,0,1,0,3.28,33.9,33.9,0,0,0-1.72,3.12c-.62,1.24-1.25,2.6-1.87,4.05-.21.52-.42,1-.63,1.48s-.41,1-.62,1.49c0,.1,0,.15-.08.15s-.08.06-.08.16c-.1.52-.28,1.27-.54,2.26a14.58,14.58,0,0,0-.47,3,8.6,8.6,0,0,0,.23,2.66,1.62,1.62,0,0,0,1.41,1.32.68.68,0,0,0,.47-.15,9.31,9.31,0,0,0,2.73-2.34,44,44,0,0,0,3.35-4.45c1.14-1.72,2.26-3.48,3.35-5.3s2.06-3.46,2.89-4.92a43.71,43.71,0,0,1,2.5-4,22.9,22.9,0,0,1,3.43-4h.15a3.78,3.78,0,0,1,1.41-.94,1.44,1.44,0,0,1,.93,0c.31.1.68.23,1.1.39a4.49,4.49,0,0,1,1.4,1,.14.14,0,0,0,.16.16l.31.16.93,1.4v.16C314.29,135.26,314.34,135.31,314.34,135.41Z" transform="translate(-8.27 -9.98)"/><path class="cls-2" d="M321.67,155.07c-.62,2.81-1.3,6.08-2,9.83v.46a4.06,4.06,0,0,1-.15,1.41,3.53,3.53,0,0,1-.94,1.09c-.21.1-.37.1-.47,0q-3.9-.47-5.07-1.33a8,8,0,0,1-1.95-2,7.58,7.58,0,0,1-1.09-2.66,10.75,10.75,0,0,1-.16-3.19c.42-2.6.91-5,1.49-7.26a48.3,48.3,0,0,1,2.1-6.39q1.25-3,2.73-6.09c1-2,2.11-4.23,3.36-6.63a2.1,2.1,0,0,1,2.41-.93A6.8,6.8,0,0,1,324,132l.86.39a6.26,6.26,0,0,1,1.32.86,7.68,7.68,0,0,1,1.56,1.87,2.93,2.93,0,0,1-.15,3.28,13.81,13.81,0,0,0-1.25,2.49,43.77,43.77,0,0,0-2.18,5.46q3.42.46,7.95.63h.94a64.16,64.16,0,0,1,4.52-10.14q2.49-4.37,2.81-4.68a2,2,0,0,1,2.34-.94,10.13,10.13,0,0,1,2.18.62l.78.47a4.76,4.76,0,0,1,1.25.78,6.26,6.26,0,0,1,1.72,1.87,2.93,2.93,0,0,1-.16,3.28q-.78,1.25-1.71,3.12c-.63,1.25-1.25,2.6-1.88,4.06a20.39,20.39,0,0,0-1.09,2.65l-.93,2.49a28.73,28.73,0,0,0-1.56,9.21,11.27,11.27,0,0,0,2,7l.47,1.09c.21.41.05.73-.47.94l-2.34.78a20.35,20.35,0,0,1-3,.46,20.77,20.77,0,0,1-3.43-.31,11.26,11.26,0,0,1-3.75-1.4,1.83,1.83,0,0,1-.93-1.09,5.68,5.68,0,0,0-.31-.94,34.73,34.73,0,0,1,0-6.71,37.78,37.78,0,0,1,1.24-5.93c-2.39.53-4.78.94-7.17,1.25A13.68,13.68,0,0,1,321.67,155.07Z" transform="translate(-8.27 -9.98)"/></g></g><g class="cls-1"><g class="cls-1"><path class="cls-3" d="M69.26,52.14a47.43,47.43,0,0,0-7.8-4.37,45.23,45.23,0,0,0-4.21,13.34A89.75,89.75,0,0,0,56,75.69a47.75,47.75,0,0,0,1,10.92,31.79,31.79,0,0,1,1,5.46,1.07,1.07,0,0,1-.7,1.17,4.55,4.55,0,0,1-1.48.24,13.88,13.88,0,0,1-6.55-2.73A17.44,17.44,0,0,1,45,85.83,20.36,20.36,0,0,1,42.67,80,24.65,24.65,0,0,1,42,74.45a45.25,45.25,0,0,1,2.81-15.21q2.81-7.87,5.62-14.75a48.71,48.71,0,0,0-8.58-.78,39,39,0,0,0-13.26,1.95A34.86,34.86,0,0,0,20,50a19.35,19.35,0,0,0-4.68,4.53,8.39,8.39,0,0,0-1.41,2.57c0,1.15-.26,1.85-.78,2.11s-.72.39-.62.39H12A2.43,2.43,0,0,1,9.83,58.3a10.58,10.58,0,0,1-1.17-3,15.08,15.08,0,0,1-.39-3.36V49.64q0-6.07,2.81-9.83A18.36,18.36,0,0,1,18,34.12a31.5,31.5,0,0,1,8.89-2.65,60.34,60.34,0,0,1,8.81-.7c1.25,0,2.4,0,3.44.07s2,.14,2.8.24,1.77.21,2.5.31A77.16,77.16,0,0,1,55.22,34c1-2.18,2.27-4.52,3.67-7s2.81-4.76,4.21-6.78a30.79,30.79,0,0,1,4.29-5.07,6.28,6.28,0,0,1,4.06-2,7.36,7.36,0,0,1,4.6,1.48c1.3,1,2,2,2,3,0,.63,0,.94-.08.94h-.47a3,3,0,0,0-1.24.47,8.43,8.43,0,0,0-2.27,2.41,63.18,63.18,0,0,0-3.58,5.93q-2.19,4-5.31,10.84a45.66,45.66,0,0,1,6.24,4.06q.94-3,1.87-5.15a72.47,72.47,0,0,1,5-9,40.43,40.43,0,0,1,9.2-9.82,42.35,42.35,0,0,1,13.88-7q8.12-2.34,19-.32a22.59,22.59,0,0,1,11.85,7.49,20.56,20.56,0,0,1,3.12,5.62,21.43,21.43,0,0,1,1.25,7.64,40.91,40.91,0,0,1-1.09,10.14,64.71,64.71,0,0,1-4.53,12.95,7.48,7.48,0,0,1-.93,2q-.47.93-.78,1.71,4.22-3.27,8-6.39,3.75-3.44,6.87-6.4a12.56,12.56,0,0,0,1.71-1.25c.63-.52,1-.41,1.25.32a5.62,5.62,0,0,1-1.09,2.8c-.83,1.15-1.46,2-1.87,2.5q-2.19,2.66-7.49,8a64.72,64.72,0,0,1-13.26,10.45A66.8,66.8,0,0,1,114,79.44a48.63,48.63,0,0,1-9.68,7.17,31.93,31.93,0,0,1-9,3.59A25.37,25.37,0,0,1,87.2,91a12,12,0,0,1-6.08-1.87,15.37,15.37,0,0,1-4.21-4.37q-1.87-2.8-1.72-8.27a29,29,0,0,1,.47-5,15,15,0,0,1-5.3-8A30.11,30.11,0,0,1,69.11,54,11.79,11.79,0,0,1,69.26,52.14Zm47,5.3a74.58,74.58,0,0,0,7-17.63,39.29,39.29,0,0,0,.94-6.86,14.67,14.67,0,0,0-.63-6.08,10.23,10.23,0,0,0-3-4.84,13.2,13.2,0,0,0-6.09-2.65,25.45,25.45,0,0,0-11.54.78,32.63,32.63,0,0,0-10.45,5.46q-5.46,4.22-9.83,13.26a38.7,38.7,0,0,0-1.87,4.83,28.16,28.16,0,0,0-1.41,7A17.67,17.67,0,0,0,80,59.47a57.91,57.91,0,0,1,5.15-8.42,40.66,40.66,0,0,1,6.7-7.18,32.32,32.32,0,0,1,7.65-5,20.92,20.92,0,0,1,8.27-1.72,10.11,10.11,0,0,1,4.83,1.41,9.49,9.49,0,0,1,3,3.12c.83,1.45,1,3.48.62,6.08a9.17,9.17,0,0,1-.94,2.34,9.46,9.46,0,0,1-1.09,1.72,1.9,1.9,0,0,1-1.56.78,2.12,2.12,0,0,1-1.56-.63l-.93-1.25a2.79,2.79,0,0,0-1.1-1.09,1.88,1.88,0,0,0-1.71-.15,16.15,16.15,0,0,0-3,1.56,51.64,51.64,0,0,0-4.68,3.74,66.67,66.67,0,0,0-5.61,6.08,79.86,79.86,0,0,0-5.46,8.43,18.75,18.75,0,0,0,2,.47,6.9,6.9,0,0,1,1.87.31,39.61,39.61,0,0,0,8.58,0,37,37,0,0,0,8.27-1.41A107,107,0,0,0,116.22,57.44ZM87.05,85.68q2.17.61,6.86-1.56t9.83-8a55.64,55.64,0,0,1-6.55.63,54.07,54.07,0,0,1-6.87.15l-2.49-.31a9.54,9.54,0,0,1-2.34-.31c-1.15,3.53-1.41,5.93-.78,7.17A4.15,4.15,0,0,0,87.05,85.68Z" transform="translate(-8.27 -9.98)"/><path class="cls-3" d="M144.61,70.55a10.26,10.26,0,0,1,.63,1.87,2.41,2.41,0,0,1-.16,1.48,1.91,1.91,0,0,1-1.09,1,5.21,5.21,0,0,1-1.33.16h-1.48a8.43,8.43,0,0,1-5.46-2.81,12.75,12.75,0,0,1-2.42-6.16q-.7-4.12,1.64-11.78a54,54,0,0,1,2.57-7.25c1-2.24,2.06-4.39,3.2-6.48l-1.56-.31a8.42,8.42,0,0,1-1.56-.47q-9-3.42-15.29-3.66c-4.15-.16-7.64-.18-10.45-.08-1.77,0-2.55-.28-2.34-.86a4.09,4.09,0,0,1,1.25-1.64,15.22,15.22,0,0,1,4.76-4.05q3.2-1.87,8.66-1.41a29.92,29.92,0,0,1,6.39,1.1A31.21,31.21,0,0,1,135.1,31c1.35.68,2.67,1.4,4,2.18A39,39,0,0,0,144,35.6,56.23,56.23,0,0,1,153.89,25a51.63,51.63,0,0,1,8.82-5.92,35.46,35.46,0,0,1,5.69-1.88,19.67,19.67,0,0,1,6.24-.54A10.17,10.17,0,0,1,180,18.52a7.29,7.29,0,0,1,2.73,5.23A11.11,11.11,0,0,1,181,30.92a19.71,19.71,0,0,1-6.4,6.4,33.15,33.15,0,0,1-10.53,4.29,41.61,41.61,0,0,1-13.88.7c-.31.62-.63,1.22-.94,1.79s-.62,1.17-.93,1.8a1.64,1.64,0,0,0-.32.62,2.89,2.89,0,0,0-.23.78,2.36,2.36,0,0,1-.39.94,11.24,11.24,0,0,0,1.17-1,6.53,6.53,0,0,1,1.33-1,15.22,15.22,0,0,1,5.61-2.65,9.93,9.93,0,0,1,5.77.15,8,8,0,0,1,4.84,4.84,13.29,13.29,0,0,1,1.33,5.62,23.32,23.32,0,0,1-.71,6.24,24.66,24.66,0,0,1-3,7,18.51,18.51,0,0,1-5.15,5.46,8.73,8.73,0,0,1-3,1.4,10.21,10.21,0,0,1-3.2.47,7.17,7.17,0,0,1-3.51-.94,6.71,6.71,0,0,1-2.65-2.49,7,7,0,0,1-1-3.36,10.86,10.86,0,0,1,.47-3.59,8.32,8.32,0,0,1,1.64-3,7.71,7.71,0,0,1,2.5-1.79,3.3,3.3,0,0,1,3.43.23c.62.31.72,1,.31,1.95s-.91,2-1.48,3.12a21.37,21.37,0,0,0-1.33,3c-.31.88,0,1.43.78,1.63s1.59-.72,2.58-2.8a40,40,0,0,0,2.49-7.1A41.59,41.59,0,0,0,158,52c.16-2.39-.23-3.84-1.17-4.37s-2.37-.28-4,.71a23.91,23.91,0,0,0-5.07,4.44,24.59,24.59,0,0,0-3.12,3.75c-.21.83-.42,1.66-.62,2.49a9.67,9.67,0,0,0-.31,2.34,24.34,24.34,0,0,0-.08,3.75A20.49,20.49,0,0,0,144.61,70.55Zm23.87-44.31a3.08,3.08,0,0,0-1.33-1.17,3.49,3.49,0,0,0-3,.31A18,18,0,0,0,159.43,29a47.58,47.58,0,0,0-6.55,8.82h1.56a16.3,16.3,0,0,0,7.33-1.72,15.23,15.23,0,0,0,4.37-3.43,9.53,9.53,0,0,0,2-3.75A7.06,7.06,0,0,0,168.48,26.24Z" transform="translate(-8.27 -9.98)"/><path class="cls-3" d="M203.89,55.73c.63.52.52,1.35-.31,2.49a66.15,66.15,0,0,1-4.13,5.31A44,44,0,0,1,192.58,70a31,31,0,0,1-8.66,4.68,14.11,14.11,0,0,1-9.36.08,8.59,8.59,0,0,1-5.77-4.92,14.2,14.2,0,0,1-.7-7.72,28,28,0,0,1,3-8.58,38.8,38.8,0,0,1,5.46-7.8,37,37,0,0,1,4.14-3.82,24.22,24.22,0,0,1,4.75-3,12.63,12.63,0,0,1,5-1.25A8.09,8.09,0,0,1,195.16,39,4.53,4.53,0,0,1,197,41.61a8.23,8.23,0,0,1,.15,3.59,13.93,13.93,0,0,1-1.32,4,24.76,24.76,0,0,1-2.42,3.9,13.31,13.31,0,0,1-2.18,2.5l-1.1,1.09a3.77,3.77,0,0,1-1.24.78,16.59,16.59,0,0,1-5.85,2.89c-1.93.47-3.51.8-4.76,1q-.17,3.28,1.25,4.45a5.22,5.22,0,0,0,3.66,1.09,14.31,14.31,0,0,0,5.15-1.33,43.39,43.39,0,0,0,5.54-2.88,38.17,38.17,0,0,0,4.83-3.51A23.87,23.87,0,0,0,202,55.88a1.5,1.5,0,0,1,.86-.39A1.41,1.41,0,0,1,203.89,55.73Zm-25-.63a2.63,2.63,0,0,0-.31,1.17,2.69,2.69,0,0,1-.31,1.17c.93-.52,1.74-1,2.42-1.48a13.42,13.42,0,0,0,1.79-1.48l1.09-1.09a12.61,12.61,0,0,0,2.19-2.66,17.22,17.22,0,0,0,1.71-3.51,2.73,2.73,0,0,0-.15-2.73c-.32-.52-.86-.54-1.64-.07a9.36,9.36,0,0,0-2.42,2.26,26.93,26.93,0,0,0-2.5,3.82A20.69,20.69,0,0,0,178.93,55.1Z" transform="translate(-8.27 -9.98)"/><path class="cls-3" d="M201.86,74.45q-3.9-.63-5.38-2.58a3.54,3.54,0,0,1-.62-3.82c.57-1.25,1.9-3.85,4-7.8a92.3,92.3,0,0,1,5.54-8.5,50.79,50.79,0,0,1,3.82-4.06c1.56-1.5,3.33-3,5.31-4.6A37.39,37.39,0,0,1,220.89,39a1.52,1.52,0,0,1,.78-.39,1.38,1.38,0,0,0,.79-.39,10.91,10.91,0,0,1,2.73-.62,2.9,2.9,0,0,1,2.57,1.09,4.24,4.24,0,0,1,1.17,4.06,15.16,15.16,0,0,1-1.33,3.59l-1,2.34Q226,50,225.42,51.2c-.31.84-.65,1.72-1,2.65s-.7,1.82-1,2.66a36.1,36.1,0,0,0-1.48,9.43A10.78,10.78,0,0,0,224,73.2a3.49,3.49,0,0,1,.46,1.17c.11.47-.1.8-.62,1s-1.38.44-2.26.7a12.65,12.65,0,0,1-3,.47,16.59,16.59,0,0,1-3.51-.23,11.1,11.1,0,0,1-3.74-1.41,1.86,1.86,0,0,1-.94-1.17,4.94,4.94,0,0,0-.31-1,48.46,48.46,0,0,1,.08-6,42.65,42.65,0,0,1,2.1-10.06c.21-.72.47-1.53.78-2.42a19.16,19.16,0,0,1,1.25-2.73V51.2c-.21-.1-.36-.1-.46,0a34.53,34.53,0,0,0-3.52,3,21,21,0,0,0-3.19,3.9,21.72,21.72,0,0,0-3.12,7.64c-.21,1.25-.37,2.42-.47,3.51s-.16,2-.16,2.57a4.06,4.06,0,0,1-.15,1.41,6.77,6.77,0,0,1-.94,1.25C202.12,74.55,202,74.55,201.86,74.45Z" transform="translate(-8.27 -9.98)"/><path class="cls-3" d="M263.79,41.84a3.3,3.3,0,0,1-.15,3q-.78,1.24-1.8,3.12a29.45,29.45,0,0,0-1.79,4c-.42.84-.81,1.69-1.17,2.58a18,18,0,0,0-.86,2.57,28.77,28.77,0,0,0-1.56,9.13,11.37,11.37,0,0,0,2,7.09,5.64,5.64,0,0,1,.55,1.1c.15.41,0,.72-.55.93s-1.4.44-2.34.7a13.72,13.72,0,0,1-3,.47,16.59,16.59,0,0,1-3.51-.23,11.07,11.07,0,0,1-3.75-1.41,2.67,2.67,0,0,1-1.09-2,29.63,29.63,0,0,1-.15-3.36,36.42,36.42,0,0,1,.46-5.22q-1.71,2.66-3.51,5A18.9,18.9,0,0,1,237.9,73a4.74,4.74,0,0,1-2.34,1.25,3,3,0,0,1-1.56.47q-5.94.46-8.19-4.06t.39-13.41a4.79,4.79,0,0,1,.62-1.72.71.71,0,0,1,.08-.31A.71.71,0,0,0,227,55a79.22,79.22,0,0,1,5.07-11.63,52.94,52.94,0,0,1,2.73-4.6,2,2,0,0,1,2.34-.93,6.76,6.76,0,0,1,2,.62,5.9,5.9,0,0,1,2.18,1.25,7.91,7.91,0,0,1,1.56,1.87,3.11,3.11,0,0,1,0,3.28c-.52.83-1.09,1.87-1.72,3.12s-1.24,2.6-1.87,4c-.21.52-.41,1-.62,1.48s-.42,1-.63,1.49c0,.1,0,.15-.07.15s-.08.06-.08.16c-.11.52-.29,1.27-.55,2.26a15.31,15.31,0,0,0-.47,3,8.59,8.59,0,0,0,.24,2.66,1.61,1.61,0,0,0,1.4,1.32.65.65,0,0,0,.47-.15A9.07,9.07,0,0,0,241.72,62a42.52,42.52,0,0,0,3.35-4.45c1.15-1.72,2.27-3.48,3.36-5.3s2-3.46,2.88-4.92q.94-1.71,2.5-4a23.34,23.34,0,0,1,3.43-4h.16a3.71,3.71,0,0,1,1.4-.94,1.47,1.47,0,0,1,.94,0c.31.1.67.23,1.09.39a4.33,4.33,0,0,1,1.4,1,.14.14,0,0,0,.16.16l.31.16.94,1.4v.16A.13.13,0,0,1,263.79,41.84Z" transform="translate(-8.27 -9.98)"/><path class="cls-3" d="M279.39,59.47c.52.42.52,1.09,0,2a26.39,26.39,0,0,1-1.87,2.88,18.51,18.51,0,0,0-1.71,2.73c-.42.84-.27,1.41.46,1.72.52.21,1.23-.21,2.11-1.25a30.61,30.61,0,0,0,2.81-4q1.47-2.51,3-5.62t2.5-5.93a22.27,22.27,0,0,0,1.25-5c.15-1.45,0-2.39-.55-2.81q-1.41-.93-4.21.94a32.74,32.74,0,0,0-5.85,5.22,47.31,47.31,0,0,0-5.62,7.73,26.75,26.75,0,0,0-3.35,8.42,73.65,73.65,0,0,0-2.89,16.22,45.36,45.36,0,0,0,.08,7.8,6.8,6.8,0,0,1,.16,1.56.7.7,0,0,1,0,.63l-.32.62a4.34,4.34,0,0,1-3.82,1.41A8.24,8.24,0,0,1,259,94.1a6.93,6.93,0,0,1-1.87-1.25,8.84,8.84,0,0,1-1.41-1.4c-.31-.42-.57-.78-.78-1.09,0-.11-.05-.16-.15-.16l-.32-.62a15.56,15.56,0,0,1-.39-7,74.82,74.82,0,0,1,1.88-9.67c.88-3.44,1.92-6.89,3.12-10.38s2.36-6.57,3.51-9.28a99.37,99.37,0,0,1,4.75-10.37,44,44,0,0,1,2.42-4.14,2,2,0,0,1,2.34-.93,9.86,9.86,0,0,1,2.19.62l.78.39a7.89,7.89,0,0,1,1.24.86A6,6,0,0,1,278,41.53a2.93,2.93,0,0,1-.16,3.28q-.31.31,0-.24t0,.24a21.86,21.86,0,0,1,2.73-2.27,18.81,18.81,0,0,1,3.51-1.95,10.64,10.64,0,0,1,4.06-.78,9.72,9.72,0,0,1,4.37,1.1A4.82,4.82,0,0,1,295,44.26a18.12,18.12,0,0,1,.47,5.46,31.17,31.17,0,0,1-1,6.32,57.24,57.24,0,0,1-1.8,5.77,31.39,31.39,0,0,1-3.9,6.63,16.18,16.18,0,0,1-5.92,4.76,10.22,10.22,0,0,1-3.12,1.09,9,9,0,0,1-3.12.08,7.69,7.69,0,0,1-3.44-1.48,5.61,5.61,0,0,1-2.34-2.81,9,9,0,0,1-.54-3.51,8.56,8.56,0,0,1,.86-3.43,10,10,0,0,1,2-2.89,8.84,8.84,0,0,1,2.73-1.4A3.64,3.64,0,0,1,279.39,59.47Z" transform="translate(-8.27 -9.98)"/><path class="cls-3" d="M305.76,61.5c-.63,2.81-1.3,6.08-2,9.83v.46a4,4,0,0,1-.16,1.41,3.39,3.39,0,0,1-.93,1.09c-.21.1-.37.1-.47,0q-3.9-.47-5.07-1.33a8,8,0,0,1-2-2,7.58,7.58,0,0,1-1.09-2.66,10.75,10.75,0,0,1-.16-3.19q.63-3.9,1.48-7.26a48.32,48.32,0,0,1,2.11-6.39q1.25-3,2.73-6.09c1-2,2.1-4.23,3.35-6.63a2.12,2.12,0,0,1,2.42-.93,7,7,0,0,1,2.11.62l.86.39a6.26,6.26,0,0,1,1.32.86,7.68,7.68,0,0,1,1.56,1.87,2.93,2.93,0,0,1-.16,3.28,13.75,13.75,0,0,0-1.24,2.49,44.88,44.88,0,0,0-2.19,5.46q3.44.47,8,.63h.93a65,65,0,0,1,4.53-10.14q2.49-4.36,2.81-4.68a2,2,0,0,1,2.34-.94,10.31,10.31,0,0,1,2.18.62l.78.47a4.93,4.93,0,0,1,1.25.78,6.26,6.26,0,0,1,1.72,1.87,2.93,2.93,0,0,1-.16,3.28c-.52.83-1.09,1.87-1.72,3.12s-1.24,2.6-1.87,4.06a19.08,19.08,0,0,0-1.09,2.65L327,57a29,29,0,0,0-1.56,9.21,11.28,11.28,0,0,0,2,7l.47,1.09c.21.41,0,.73-.47.94L325.1,76a20.35,20.35,0,0,1-3,.46,20.67,20.67,0,0,1-3.43-.31,11.26,11.26,0,0,1-3.75-1.4,1.89,1.89,0,0,1-.94-1.09,4.26,4.26,0,0,0-.31-.94,34.73,34.73,0,0,1,0-6.71A38.83,38.83,0,0,1,315,60.09c-2.39.53-4.78.94-7.18,1.25A13.45,13.45,0,0,1,305.76,61.5Z" transform="translate(-8.27 -9.98)"/><path class="cls-3" d="M343.66,54.48v.15c0,.11-.05.16-.15.16v.31a3.7,3.7,0,0,0,.93-.47,6.76,6.76,0,0,1,1.25-.93,30.91,30.91,0,0,1,5.93-2,12.08,12.08,0,0,1,5.77.16,7.2,7.2,0,0,1,4.84,3.74A8.89,8.89,0,0,1,363.55,60a13.33,13.33,0,0,1-.7,4.75,17.71,17.71,0,0,1-3,5.39,16.85,16.85,0,0,1-5.15,4.29,8.59,8.59,0,0,1-3,1.09,15.63,15.63,0,0,1-3.36.31,10.74,10.74,0,0,1-3.66-.62,6.82,6.82,0,0,1-2.66-2,4.73,4.73,0,0,1-1-2.58,6.4,6.4,0,0,1,.47-2.73,5.82,5.82,0,0,1,1.64-2.34,7.89,7.89,0,0,1,2.49-1.48,4.53,4.53,0,0,1,3.75.24c.62.21.72.7.31,1.48a15.22,15.22,0,0,1-1.64,2.42,9.85,9.85,0,0,0-1.48,2.34c-.31.72-.05,1.14.78,1.24s1.89-.64,2.88-2.26a25.71,25.71,0,0,0,2.5-5.54A26.18,26.18,0,0,0,354,58.14c.15-1.81-.24-2.93-1.17-3.35s-2.42-.23-4.14.55a21.53,21.53,0,0,0-5.22,3.51,20.87,20.87,0,0,0-3.12,2.8c-.21.73-.42,1.41-.63,2a5.86,5.86,0,0,0-.31,1.87,15.37,15.37,0,0,0-.07,2.89,11.49,11.49,0,0,0,1,4.13,8.14,8.14,0,0,1,.62,1.56,1.34,1.34,0,0,1-.15,1.1,2.35,2.35,0,0,1-1.1.78,5.56,5.56,0,0,1-1.32.15H337a11.3,11.3,0,0,1-5.46-2,9.71,9.71,0,0,1-2.42-5q-.7-3.27,1.64-9.2,1.39-4.36,1.56-4.68a87.6,87.6,0,0,1,5-11.86,55.3,55.3,0,0,1,2.81-4.83,2,2,0,0,1,2.34-.94,10.31,10.31,0,0,1,2.18.62l.78.47a4.93,4.93,0,0,1,1.25.78,5.86,5.86,0,0,1,1.71,2,2.91,2.91,0,0,1-.15,3.28c-.52.93-1.09,2-1.72,3.27s-1.25,2.65-1.87,4.21C344.29,53,344,53.75,343.66,54.48Zm39-15.76-.78-.47a10.13,10.13,0,0,0-2.18-.62,2,2,0,0,0-2.34.94q-.32.32-2.81,4.68a81.69,81.69,0,0,0-5,11.54,47.73,47.73,0,0,0-3,11.23,34.73,34.73,0,0,0,0,6.71,5.68,5.68,0,0,1,.31.94,1.83,1.83,0,0,0,.93,1.09,11.26,11.26,0,0,0,3.75,1.4,20.77,20.77,0,0,0,3.43.31,20.35,20.35,0,0,0,3-.46l2.34-.78c.52-.21.68-.53.47-.94l-.47-1.09a11.27,11.27,0,0,1-2-7A29,29,0,0,1,379.86,57l.93-2.49a20.39,20.39,0,0,1,1.09-2.65c.63-1.46,1.25-2.81,1.88-4.06s1.19-2.29,1.71-3.12a2.93,2.93,0,0,0,.16-3.28,6.26,6.26,0,0,0-1.72-1.87A4.76,4.76,0,0,0,382.66,38.72Z" transform="translate(-8.27 -9.98)"/><path class="cls-3" d="M423.22,41.84a3.3,3.3,0,0,1-.15,3q-.78,1.24-1.8,3.12a29.45,29.45,0,0,0-1.79,4c-.42.84-.81,1.69-1.17,2.58a18,18,0,0,0-.86,2.57,28.77,28.77,0,0,0-1.56,9.13,11.37,11.37,0,0,0,2,7.09,5.64,5.64,0,0,1,.55,1.1c.15.41,0,.72-.55.93s-1.4.44-2.34.7a13.72,13.72,0,0,1-3,.47,16.59,16.59,0,0,1-3.51-.23,11.07,11.07,0,0,1-3.75-1.41,2.64,2.64,0,0,1-1.09-2,29.63,29.63,0,0,1-.15-3.36,36.42,36.42,0,0,1,.46-5.22q-1.71,2.66-3.51,5A18.9,18.9,0,0,1,397.33,73,4.74,4.74,0,0,1,395,74.29a3,3,0,0,1-1.56.47q-5.94.46-8.19-4.06t.39-13.41a4.79,4.79,0,0,1,.62-1.72.71.71,0,0,1,.08-.31.71.71,0,0,0,.08-.31,78.16,78.16,0,0,1,5.07-11.63,52.94,52.94,0,0,1,2.73-4.6,2,2,0,0,1,2.34-.93,6.76,6.76,0,0,1,2,.62,5.9,5.9,0,0,1,2.18,1.25,7.91,7.91,0,0,1,1.56,1.87,3.11,3.11,0,0,1,0,3.28c-.52.83-1.09,1.87-1.72,3.12s-1.24,2.6-1.87,4c-.21.52-.41,1-.62,1.48s-.42,1-.63,1.49c0,.1,0,.15-.07.15s-.08.06-.08.16c-.11.52-.29,1.27-.55,2.26a15.31,15.31,0,0,0-.47,3,8.59,8.59,0,0,0,.24,2.66,1.6,1.6,0,0,0,1.4,1.32.65.65,0,0,0,.47-.15A9.07,9.07,0,0,0,401.15,62a42.52,42.52,0,0,0,3.35-4.45c1.15-1.72,2.27-3.48,3.36-5.3s2.05-3.46,2.88-4.92q.94-1.71,2.5-4a23.34,23.34,0,0,1,3.43-4h.16a3.71,3.71,0,0,1,1.4-.94,1.47,1.47,0,0,1,.94,0c.31.1.67.23,1.09.39a4.33,4.33,0,0,1,1.4,1,.14.14,0,0,0,.16.16l.31.16.94,1.4v.16A.13.13,0,0,1,423.22,41.84ZM421.51,33c1.14.73,1,1.27-.47,1.64a19.4,19.4,0,0,1-5.77.31,27.42,27.42,0,0,1-7.33-1.56,8.75,8.75,0,0,1-5.15-4,6.67,6.67,0,0,1-.94-3.51,5,5,0,0,1,.78-2.26,5.85,5.85,0,0,1,2-1.72,5.2,5.2,0,0,1,1.95-.7,2.54,2.54,0,0,1,1.17.08c.31-.31.57-.21.78.31A17.6,17.6,0,0,0,412,28a15.1,15.1,0,0,0,4,3.2,11.44,11.44,0,0,0,3.51,1.24A5.84,5.84,0,0,1,421.51,33Z" transform="translate(-8.27 -9.98)"/></g><g class="cls-1"><path class="cls-3" d="M131,165.08a9.13,9.13,0,0,0,1.09,1.72,3.71,3.71,0,0,1,.47,1.17c.1.47-.11.8-.63,1s-1.38.44-2.26.7a12.56,12.56,0,0,1-3,.47,8.11,8.11,0,0,1-2.42-.15,14.94,14.94,0,0,1-2.65-1.33,1.8,1.8,0,0,1-.94-1.17,5.41,5.41,0,0,0-.31-1,46.52,46.52,0,0,1,.08-6,42.05,42.05,0,0,1,2.1-10.06c.21-.73.47-1.54.78-2.42a18.12,18.12,0,0,1,1.25-2.73c.41-1.46-.47-1.61-2.65-.47a33.42,33.42,0,0,0-3.51,3,21.07,21.07,0,0,0-3.2,3.9,21.72,21.72,0,0,0-3.12,7.64c-.21,1.25-.37,2.42-.47,3.51s-.15,2-.15,2.57a4,4,0,0,1-.16,1.41,6.35,6.35,0,0,1-.94,1.25c-.21.1-.36.1-.46,0-2.61-.42-4.4-1.28-5.39-2.58a3.56,3.56,0,0,1-.62-3.82q.86-1.87,4-7.8a88.73,88.73,0,0,1,5.54-8.5,49,49,0,0,1,3.82-4.06c1.56-1.5,3.32-3,5.3-4.6a37.47,37.47,0,0,1,6.4-4.06,1.48,1.48,0,0,1,.78-.39,1.38,1.38,0,0,0,.78-.39,10.91,10.91,0,0,1,2.73-.62,2.9,2.9,0,0,1,2.57,1.09,4.24,4.24,0,0,1,1.17,4.06,15.35,15.35,0,0,1-1.32,3.59c-.32.72-.63,1.5-.94,2.34l-.94,1.87q1.24-1.41,3-3.12c1.56-1.46,3.32-3,5.3-4.53a36.82,36.82,0,0,1,6.4-4.05,1.35,1.35,0,0,1,.78-.39,1.38,1.38,0,0,0,.78-.39,11.37,11.37,0,0,1,2.73-.63,2.88,2.88,0,0,1,2.57,1.1,4.12,4.12,0,0,1,1.17,4,19,19,0,0,1-1.32,3.67l-1,2.34c-.36.83-.75,1.66-1.17,2.5s-.65,1.71-1,2.65-.7,1.82-1,2.65a36.11,36.11,0,0,0-1.48,9.44,10.76,10.76,0,0,0,2.11,7.25,3.71,3.71,0,0,1,.47,1.17.84.84,0,0,1-.63,1c-.62.2-1.38.44-2.26.7a13.1,13.1,0,0,1-3,.47,16.54,16.54,0,0,1-3.51-.24,11.26,11.26,0,0,1-3.75-1.4,1.81,1.81,0,0,1-.93-1.17,4.76,4.76,0,0,0-.32-1,50.4,50.4,0,0,1,.08-6,42.54,42.54,0,0,1,2.11-10.06c.2-.73.47-1.54.78-2.42A16.78,16.78,0,0,1,142,145v-.31c-.21-.11-.37-.11-.47,0a33.27,33.27,0,0,0-3.51,3,21.07,21.07,0,0,0-3.2,3.9,21.72,21.72,0,0,0-3.12,7.64c-.21,1.25-.37,2.4-.47,3.44S131,164.46,131,165.08Z" transform="translate(-8.27 -9.98)"/><path class="cls-3" d="M187,147a46,46,0,0,0-2.81,7.48,24.15,24.15,0,0,0-1.17,7.57,11.79,11.79,0,0,0,2.26,6.63l.31.62a1,1,0,0,1,0,1.1c-.21.62-.88.83-2,.62a11.47,11.47,0,0,1-5.15-1.09,8.5,8.5,0,0,1-3.43-2.81,9.3,9.3,0,0,1-1.56-5.77,28.34,28.34,0,0,1-6.24,5.93,10.11,10.11,0,0,1-8.12,1.56,6.66,6.66,0,0,1-4.44-2.58,8.94,8.94,0,0,1-1.48-4.6,17.73,17.73,0,0,1,.7-5.77,42.9,42.9,0,0,1,2.18-6.09,49.52,49.52,0,0,1,2.89-5.53,38.21,38.21,0,0,1,2.81-4.14,33.73,33.73,0,0,1,5.53-5.77,9.06,9.06,0,0,1,7.1-2.34l1.64.39a4.69,4.69,0,0,1,2,1,4.83,4.83,0,0,1,2,3.2,9.58,9.58,0,0,1-.31,4.14v.15h.15a3.08,3.08,0,0,1,3.28-.31.47.47,0,0,0,.31.16,6.61,6.61,0,0,1,3.43,3.74A3,3,0,0,1,187,147Zm-11.7,3.74c.31-1.14.67-2.29,1.09-3.43s.88-2.29,1.4-3.43a9.44,9.44,0,0,1-1.63,1.32,3.83,3.83,0,0,1-2.11.55c-.94,0-1.46-.16-1.56-.47a2,2,0,0,1,0-1.56l.47-.47.15-.15a6.24,6.24,0,0,0,1-2.5,2.3,2.3,0,0,0-1-2.65,2.64,2.64,0,0,0-3,.31,14.06,14.06,0,0,0-3.43,3.28,28.26,28.26,0,0,0-3.12,5,20.12,20.12,0,0,0-1.87,5.3,7.51,7.51,0,0,0,.31,4.37c.52,1.25,1.66,1.93,3.43,2a7.34,7.34,0,0,0,4.29-1.48,43.71,43.71,0,0,0,4.76-3.51A4.1,4.1,0,0,0,175,152,3.77,3.77,0,0,1,175.34,150.73Z" transform="translate(-8.27 -9.98)"/><path class="cls-3" d="M203,147.84a3.16,3.16,0,0,1-.86,2.27l-.31.15a3,3,0,0,1-1.72.94,7,7,0,0,1-3.43-.31,5.88,5.88,0,0,1-3.51-3,12.49,12.49,0,0,1-.7-10.76,8.37,8.37,0,0,1,3.9-4.37,15.11,15.11,0,0,1,4.68-1.72,9,9,0,0,1,4,.32,2.35,2.35,0,0,1,.86.15,5,5,0,0,1,.86.47,10.63,10.63,0,0,1,3.74,2.5,12.4,12.4,0,0,1,2.89,5.53,3.66,3.66,0,0,1,.08,1.64,6.12,6.12,0,0,1-.16,3.59,14.17,14.17,0,0,1-3.27,5,17,17,0,0,1-7.34,4.21A46.65,46.65,0,0,0,197,157a25.5,25.5,0,0,0-3.51,2.11c-1.09.78-1.53,1.53-1.32,2.26s1.32,1.07,3,.7a28.08,28.08,0,0,0,5.69-1.95,40.15,40.15,0,0,0,6.09-3.43,12.49,12.49,0,0,0,4.05-4.06,4.27,4.27,0,0,1,1.87-1.25c.21.11.44.21.71.32s.33.41.23.93a8.24,8.24,0,0,1,0,3.28,13.53,13.53,0,0,1-2.11,5.22,21.46,21.46,0,0,1-5.38,5.62q-3.58,2.73-10.61,4.29a13.29,13.29,0,0,1-5.61.31,6.78,6.78,0,0,1-3.67-1.64c-1-.88-1.32-2.41-1-4.6a10.28,10.28,0,0,1,2.49-5.54,19.68,19.68,0,0,1,4.68-3.82,25.67,25.67,0,0,1,5.07-2.34c1.61-.52,3-1,4.14-1.4a4.76,4.76,0,0,0,2.34-1.72,7.86,7.86,0,0,0,1.32-2.73,20.29,20.29,0,0,0,.55-3.12,9.78,9.78,0,0,0-.16-3v-.16l.16-.15a9.69,9.69,0,0,0-1.87-3.51c-.73-.78-1.41-.86-2-.24a3.36,3.36,0,0,0-1.17,1.95,9.72,9.72,0,0,0-.16,2.5,9.84,9.84,0,0,0,.39,2.34,3.57,3.57,0,0,0,.78,1.48A3.88,3.88,0,0,1,203,147.84Z" transform="translate(-8.27 -9.98)"/><path class="cls-3" d="M248.81,147a47,47,0,0,0-2.81,7.48,24.15,24.15,0,0,0-1.17,7.57,11.88,11.88,0,0,0,2.27,6.63l.31.62a1,1,0,0,1,0,1.1c-.21.62-.89.83-2,.62a11.5,11.5,0,0,1-5.15-1.09,8.57,8.57,0,0,1-3.43-2.81,9.3,9.3,0,0,1-1.56-5.77,28.34,28.34,0,0,1-6.24,5.93,10.09,10.09,0,0,1-8.11,1.56,6.7,6.7,0,0,1-4.45-2.58,9,9,0,0,1-1.48-4.6,18,18,0,0,1,.7-5.77,41.74,41.74,0,0,1,2.19-6.09,49.49,49.49,0,0,1,2.88-5.53,39.72,39.72,0,0,1,2.81-4.14,33.81,33.81,0,0,1,5.54-5.77,9,9,0,0,1,7.1-2.34l1.63.39a4.69,4.69,0,0,1,1.95,1,4.79,4.79,0,0,1,2,3.2,9.58,9.58,0,0,1-.31,4.14v.15h.16a3.06,3.06,0,0,1,3.27-.31.47.47,0,0,0,.31.16,6.66,6.66,0,0,1,3.44,3.74A3,3,0,0,1,248.81,147Zm-11.7,3.74c.31-1.14.68-2.29,1.09-3.43s.89-2.29,1.41-3.43a9.5,9.5,0,0,1-1.64,1.32,3.79,3.79,0,0,1-2.11.55c-.93,0-1.45-.16-1.56-.47a2,2,0,0,1,0-1.56l.47-.47.16-.15a6.4,6.4,0,0,0,1-2.5,2.31,2.31,0,0,0-1-2.65,2.66,2.66,0,0,0-3,.31,14.42,14.42,0,0,0-3.43,3.28,29.48,29.48,0,0,0-3.12,5,20.49,20.49,0,0,0-1.87,5.3,7.59,7.59,0,0,0,.31,4.37c.52,1.25,1.66,1.93,3.43,2a7.3,7.3,0,0,0,4.29-1.48,42.76,42.76,0,0,0,4.76-3.51,3.84,3.84,0,0,0,.39-1.25A3.77,3.77,0,0,1,237.11,150.73Z" transform="translate(-8.27 -9.98)"/><path class="cls-3" d="M275,133.57A2.85,2.85,0,0,1,276,135a8.76,8.76,0,0,1,.46,2,10,10,0,0,1-.15,3c-.11.62-.21,1.19-.31,1.71s-.21,1-.32,1.41a2,2,0,0,1-.46.93H275a2.47,2.47,0,0,1-.62.47q-3.13,2.34-5.85,4.76a57.75,57.75,0,0,0-4.84,4.76c-1.4,1.56-2.63,3-3.67,4.36s-1.87,2.45-2.49,3.28h1.56c1,.21,2.31.52,3.82.94a10.85,10.85,0,0,1,4.45,2.65,18.55,18.55,0,0,1,2.57,3.2,14.33,14.33,0,0,1,2.11,7.25,19.2,19.2,0,0,1-.24,4.68,20.29,20.29,0,0,1-1,3.59,16.25,16.25,0,0,1-1.17,2.42,9.8,9.8,0,0,1-.7,1,15.5,15.5,0,0,1-1,1.48c-.36.47-.65.86-.86,1.17a33.12,33.12,0,0,1-6.94,5,21.68,21.68,0,0,1-9.28,2.5c-4,.31-6.92-.39-8.89-2.11a12,12,0,0,1-3.9-6.31,19,19,0,0,1-.39-7.49,14.32,14.32,0,0,1,1.64-5.46,32.32,32.32,0,0,0-5.46.47q-2.66.3-5.93.93a55.12,55.12,0,0,0-7,1.87c-1,.42-2.13.83-3.28,1.25s-2.23.88-3.59,1.41a45.21,45.21,0,0,0-4.21,1.87c-.93.52-2.31,1.19-4.13,2s-3.88,1.68-6.16,2.57a59.25,59.25,0,0,1-7.26,2.26,30.2,30.2,0,0,1-7.25.94q-7.8.15-10.92-3.67a11.32,11.32,0,0,1-2.19-9.44c.11-.21.32-.54.63-1s.83-.5,1.56-.08a25.53,25.53,0,0,0,2.65,1.09,17.11,17.11,0,0,0,4.37.86,44.35,44.35,0,0,0,6.55,0,62.5,62.5,0,0,0,9.05-1.32q6.07-1.26,10.53-2.5c3-.83,5.85-1.59,8.66-2.26s5.72-1.28,8.73-1.8,6.61-.93,10.77-1.24a20.66,20.66,0,0,1,4.52.15,13.56,13.56,0,0,1,3.12.94,1.76,1.76,0,0,1,1.09,2.18,18.43,18.43,0,0,1-.93,3.9,10.58,10.58,0,0,0-.55,4.53,5.1,5.1,0,0,0,2.34,3.66c1.4,1,3.93,1.48,7.57,1.48a18.1,18.1,0,0,0,4.05-.78,32.93,32.93,0,0,0,3.82-1.71,15.48,15.48,0,0,0,4.14-3.28,19.25,19.25,0,0,0,1.95-2.88,7.35,7.35,0,0,0,.86-4.14,5.07,5.07,0,0,0-.94-3.12,7.44,7.44,0,0,0-2.11-1.95,8.42,8.42,0,0,0-2.49-1,10.06,10.06,0,0,0-2.26-.31,12.65,12.65,0,0,0-5.23,1.32,5.49,5.49,0,0,0-2.89,3.82c-.1.32-.26.5-.46.55a2.38,2.38,0,0,1-.47.08A7.49,7.49,0,0,1,247,172a4.3,4.3,0,0,1-1.33-3.59,5.47,5.47,0,0,1,2.42-4.6,11.81,11.81,0,0,1,5.38-1.8,6.26,6.26,0,0,1-.23-3.51,21.26,21.26,0,0,1,.86-3l.93-2.18a17,17,0,0,1,1.25-2.34,8.42,8.42,0,0,1,.7-1.17l.7-1q3.58-5.46,6.09-8.73a.66.66,0,0,1-.47.15,5.93,5.93,0,0,1-2.18.16h-.32a37,37,0,0,1-5.3,6,14.34,14.34,0,0,1-7.18,3.67,2.64,2.64,0,0,1-2.34-.86,5.37,5.37,0,0,1-1.24-2,2.35,2.35,0,0,1-.32-.93.89.89,0,0,1,.32-.94.45.45,0,0,1,.31-.16,3.11,3.11,0,0,0,1.25.16.73.73,0,0,0,.54.08,1.82,1.82,0,0,1,.55-.08h.47a7.19,7.19,0,0,0,2.65-.94,32.2,32.2,0,0,0,2.81-2,20.11,20.11,0,0,0,3.43-3.9.83.83,0,0,1-.39-.32,1.53,1.53,0,0,0-.24-.31,7.24,7.24,0,0,1-1.4-3.12,14.67,14.67,0,0,1-.7-5.15,11.15,11.15,0,0,1,1.17-4.91,7.36,7.36,0,0,1,3.12-3.2c1.35-.73,3.06-.73,5.15,0a5.31,5.31,0,0,1,2.8,2.11,5.72,5.72,0,0,1,.78,3,10,10,0,0,1-.62,3.36A23.78,23.78,0,0,1,265,133l-.32.62a5.4,5.4,0,0,1-.31.55,4.31,4.31,0,0,0-.31.54,2.44,2.44,0,0,0,1.87-.15l1.8-.71c.67-.26,1.48-.54,2.41-.85a11,11,0,0,1,2.42-.39A3.05,3.05,0,0,1,275,133.57Zm-14.51-1.4a8.88,8.88,0,0,0,1-1.33,6.41,6.41,0,0,0,.78-1.72,2.93,2.93,0,0,0,.07-1.48,1.07,1.07,0,0,0-.93-.78,1,1,0,0,0-1.17.47,8.31,8.31,0,0,0-.7,1.4,3.49,3.49,0,0,0,.31,2.5A3.39,3.39,0,0,0,260.51,132.17Z" transform="translate(-8.27 -9.98)"/><path class="cls-3" d="M310.9,135.44a3.33,3.33,0,0,1-.16,3c-.52.83-1.12,1.87-1.79,3.12a28.31,28.31,0,0,0-1.8,4.05c-.41.84-.8,1.69-1.17,2.58a17.94,17.94,0,0,0-.85,2.57,28.77,28.77,0,0,0-1.56,9.13,11.37,11.37,0,0,0,2,7.09,5.64,5.64,0,0,1,.55,1.1c.16.41,0,.72-.55.93s-1.4.44-2.34.7a13.63,13.63,0,0,1-3,.47,16.59,16.59,0,0,1-3.51-.23,11.1,11.1,0,0,1-3.74-1.41,2.66,2.66,0,0,1-1.09-2,27.12,27.12,0,0,1-.16-3.36,36.63,36.63,0,0,1,.47-5.22c-1.15,1.76-2.32,3.43-3.51,5a19.21,19.21,0,0,1-3.67,3.74,4.66,4.66,0,0,1-2.34,1.25,3,3,0,0,1-1.56.47q-5.93.46-8.19-4.06t.39-13.41a5,5,0,0,1,.63-1.72.7.7,0,0,1,.07-.31.62.62,0,0,0,.08-.31,80.31,80.31,0,0,1,5.07-11.63,52.94,52.94,0,0,1,2.73-4.6,2,2,0,0,1,2.34-.93,6.66,6.66,0,0,1,2,.62,5.75,5.75,0,0,1,2.18,1.25,7.89,7.89,0,0,1,1.57,1.87,3.11,3.11,0,0,1,0,3.28,33.9,33.9,0,0,0-1.72,3.12c-.62,1.24-1.25,2.6-1.87,4.05-.21.52-.42,1-.63,1.48s-.41,1-.62,1.49c0,.1,0,.15-.08.15s-.08.05-.08.16c-.1.52-.29,1.27-.54,2.26a14.58,14.58,0,0,0-.47,3,8.6,8.6,0,0,0,.23,2.66,1.62,1.62,0,0,0,1.41,1.32.64.64,0,0,0,.46-.15,9.2,9.2,0,0,0,2.74-2.34,44,44,0,0,0,3.35-4.45c1.14-1.72,2.26-3.48,3.35-5.3s2.05-3.46,2.89-4.92a43.71,43.71,0,0,1,2.5-4,22.9,22.9,0,0,1,3.43-4h.15a3.78,3.78,0,0,1,1.41-.94,1.44,1.44,0,0,1,.93,0c.31.1.68.23,1.09.39a4.25,4.25,0,0,1,1.41,1,.14.14,0,0,0,.16.16l.31.16.93,1.4v.16A.14.14,0,0,1,310.9,135.44Z" transform="translate(-8.27 -9.98)"/><path class="cls-3" d="M318.23,155.1c-.62,2.81-1.3,6.08-2,9.83v.46a3.75,3.75,0,0,1-.16,1.41,3.39,3.39,0,0,1-.93,1.09c-.21.1-.37.1-.47,0q-3.9-.46-5.07-1.33a8,8,0,0,1-1.95-2,7.58,7.58,0,0,1-1.09-2.66,10.75,10.75,0,0,1-.16-3.19c.42-2.6.91-5,1.49-7.26A48.3,48.3,0,0,1,310,145q1.25-3,2.73-6.09t3.35-6.63a2.12,2.12,0,0,1,2.42-.93,6.8,6.8,0,0,1,2.11.62l.86.39a6.26,6.26,0,0,1,1.32.86,7.68,7.68,0,0,1,1.56,1.87,2.93,2.93,0,0,1-.15,3.28,13.81,13.81,0,0,0-1.25,2.49,43.77,43.77,0,0,0-2.18,5.46q3.42.46,7.95.63h.94a64.16,64.16,0,0,1,4.52-10.14q2.49-4.36,2.81-4.68a2,2,0,0,1,2.34-.94,10.13,10.13,0,0,1,2.18.62l.78.47a4.76,4.76,0,0,1,1.25.78,6.26,6.26,0,0,1,1.72,1.87,2.93,2.93,0,0,1-.16,3.28q-.78,1.25-1.71,3.12c-.63,1.25-1.25,2.6-1.88,4.06a20.39,20.39,0,0,0-1.09,2.65l-.93,2.49a28.73,28.73,0,0,0-1.56,9.21,11.27,11.27,0,0,0,2,7l.47,1.09c.21.41.05.73-.47.94l-2.34.78a20.35,20.35,0,0,1-3,.46,20.77,20.77,0,0,1-3.43-.31,11.26,11.26,0,0,1-3.75-1.4,1.83,1.83,0,0,1-.93-1.09,5.68,5.68,0,0,0-.31-.94,34.73,34.73,0,0,1,0-6.71,37.55,37.55,0,0,1,1.24-5.93q-3.58.78-7.17,1.25A13.68,13.68,0,0,1,318.23,155.1Z" transform="translate(-8.27 -9.98)"/></g></g></svg>