<svg id="Capa_1" enable-background="new 0 0 512 512" height="512" viewBox="0 0 512 512" width="512" xmlns="http://www.w3.org/2000/svg"><g><path d="m396.671 230.142c26.933-14.277 45.329-42.595 45.329-75.142 0-46.869-38.131-85-85-85-27.779 0-53.356 13.516-69.109 35.523-21.246-13.011-46.206-20.523-72.891-20.523-72.518 0-132.335 55.426-139.319 126.138-42.848 6.877-75.681 44.106-75.681 88.862 0 23.453 8.973 45.654 25.267 62.514 11.636 12.041 26.126 20.426 41.981 24.546-.493 2.171-.928 4.365-1.26 6.592-26.347 6.328-45.988 30.088-45.988 58.348 0 33.084 26.916 60 60 60h150c33.084 0 60-26.916 60-60 0-28.26-19.641-52.02-45.987-58.348-.183-1.226-.399-2.442-.631-3.652h96.618c49.626 0 90-40.374 90-90 0-28.166-13.01-53.343-33.329-69.858zm-39.671-130.142c30.327 0 55 24.673 55 55s-24.673 55-55 55c-.939 0-1.878-.038-2.816-.086-3.628-33.689-19.247-63.838-42.501-86.073 10.138-14.745 26.987-23.841 45.317-23.841zm-97 352c0 16.542-13.458 30-30 30h-150c-16.542 0-30-13.458-30-30 0-11.84 6.896-22.098 16.882-26.974 1.256 6.134 3.147 12.155 5.687 17.973 2.461 5.64 7.972 9.004 13.756 9.004 2.003 0 4.039-.404 5.991-1.256 7.593-3.313 11.062-12.155 7.749-19.748-3.369-7.721-5.026-15.815-5.073-23.828 0-.006 0-.01 0-.015.005-33.078 26.927-60.156 60.008-60.156 33.084 0 60 26.916 60 60 0 8.284 6.716 15 15 15 16.542 0 30 13.458 30 30zm80-92h-108.272c-15.848-25.776-44.314-43-76.728-43-31.977 0-60.097 16.773-76.065 41.972-28.054-5.163-48.935-29.56-48.935-58.972 0-28.296 19.695-52.063 46.092-58.355 1.614 13.558 5.182 26.74 10.687 39.355 2.461 5.64 7.972 9.004 13.756 9.004 2.003 0 4.039-.404 5.992-1.256 7.593-3.313 11.062-12.155 7.748-19.748-6.076-13.922-9.166-28.733-9.186-44.02.759-60.006 49.728-109.98 109.911-109.98 56.052 0 102.443 42.143 109.16 96.408-18.01 3.181-34.598 11.751-47.8 24.953-5.858 5.858-5.858 15.355 0 21.213 2.929 2.929 6.768 4.394 10.606 4.394s7.678-1.464 10.606-4.394c11.334-11.333 26.402-17.574 42.428-17.574 33.084 0 60 26.916 60 60s-26.916 60-60 60z"/><path d="m497 140h-20c-8.284 0-15 6.716-15 15s6.716 15 15 15h20c8.284 0 15-6.716 15-15s-6.716-15-15-15z"/><path d="m431.246 80.753c5.858 5.858 15.355 5.858 21.213 0l14.142-14.142c5.858-5.858 5.858-15.355 0-21.213-5.858-5.858-15.355-5.858-21.213 0l-14.142 14.142c-5.858 5.858-5.858 15.355 0 21.213z"/><path d="m357 50c8.284 0 15-6.716 15-15v-20c0-8.284-6.716-15-15-15s-15 6.716-15 15v20c0 8.284 6.716 15 15 15z"/><path d="m261.541 80.754c5.858 5.858 15.356 5.858 21.213 0 5.858-5.858 5.858-15.355 0-21.213l-14.142-14.142c-5.858-5.858-15.356-5.858-21.213 0-5.858 5.858-5.858 15.355 0 21.213z"/><path d="m452.459 229.246c-5.858-5.858-15.356-5.858-21.213 0-5.858 5.858-5.858 15.355 0 21.213l14.142 14.142c5.858 5.858 15.356 5.858 21.213 0 5.858-5.858 5.858-15.355 0-21.213z"/></g></svg>