<svg id="Capa_1" enable-background="new 0 0 512 512" height="512" viewBox="0 0 512 512" width="512" xmlns="http://www.w3.org/2000/svg"><path d="m58.961 450.731c-7.666-3.142-16.427.525-19.568 8.191l-13.273 32.386c-3.142 7.666.525 16.426 8.191 19.568 1.862.763 3.788 1.125 5.683 1.125 5.906 0 11.506-3.512 13.885-9.315l13.273-32.386c3.142-7.667-.525-16.427-8.191-19.569z"/><path d="m142.294 450.731c-7.663-3.142-16.427.525-19.567 8.191l-13.272 32.386c-3.142 7.666.526 16.426 8.191 19.567 1.862.763 3.787 1.125 5.683 1.125 5.906 0 11.507-3.512 13.885-9.316l13.272-32.386c3.141-7.665-.527-16.426-8.192-19.567z"/><path d="m225.628 450.731c-7.666-3.142-16.427.525-19.568 8.191l-13.273 32.386c-3.142 7.666.525 16.426 8.191 19.568 1.862.763 3.788 1.125 5.683 1.125 5.906 0 11.506-3.512 13.885-9.315l13.273-32.386c3.141-7.667-.526-16.427-8.191-19.569z"/><path d="m497 140h-20c-8.284 0-15 6.716-15 15s6.716 15 15 15h20c8.284 0 15-6.716 15-15s-6.716-15-15-15z"/><path d="m441.853 85.147c3.838 0 7.678-1.465 10.606-4.393l14.143-14.142c5.858-5.858 5.858-15.355 0-21.213-5.857-5.858-15.355-5.857-21.213 0l-14.143 14.141c-5.858 5.858-5.858 15.355 0 21.213 2.929 2.93 6.768 4.394 10.607 4.394z"/><path d="m357 50c8.284 0 15-6.716 15-15v-20c0-8.284-6.716-15-15-15s-15 6.716-15 15v20c0 8.284 6.716 15 15 15z"/><path d="m261.541 80.754c2.929 2.929 6.768 4.393 10.606 4.393s7.678-1.464 10.606-4.394c5.858-5.858 5.858-15.355 0-21.213l-14.143-14.142c-5.857-5.857-15.355-5.858-21.213 0-5.857 5.858-5.857 15.355 0 21.213z"/><path d="m452.459 229.246c-5.857-5.857-15.355-5.858-21.213 0s-5.858 15.355 0 21.213l14.143 14.142c2.929 2.929 6.768 4.393 10.606 4.393s7.678-1.464 10.606-4.394c5.858-5.858 5.858-15.355 0-21.213z"/><path d="m396.671 230.142c26.933-14.277 45.329-42.595 45.329-75.142 0-46.869-38.131-85-85-85-27.779 0-53.356 13.516-69.109 35.523-21.246-13.011-46.206-20.523-72.891-20.523-72.518 0-132.335 55.426-139.319 126.138-42.848 6.877-75.681 44.106-75.681 88.862 0 42.286 29.316 77.847 68.689 87.444l-5.841 14.253c-3.142 7.666.525 16.426 8.191 19.568 1.862.763 3.788 1.125 5.683 1.125 5.906 0 11.506-3.512 13.885-9.315l9.456-23.075h50.912l-4.794 11.697c-3.142 7.666.525 16.426 8.191 19.568 1.862.763 3.788 1.125 5.683 1.125 5.906 0 11.506-3.512 13.885-9.315l9.457-23.075h50.912l-4.794 11.698c-3.142 7.666.526 16.426 8.191 19.567 1.862.763 3.787 1.125 5.683 1.125 5.906 0 11.507-3.512 13.885-9.316l9.456-23.074h50.91l-11.519 28.107c-2.794 6.818-.223 14.657 6.068 18.494l29.082 17.74-15.15 36.966c-3.142 7.666.526 16.426 8.191 19.568 1.862.763 3.788 1.125 5.683 1.125 5.906 0 11.507-3.512 13.886-9.315l20-48.8c2.794-6.818.223-14.657-6.068-18.494l-29.082-17.74 11.576-28.244c44.788-5.13 79.693-43.266 79.693-89.407 0-28.166-13.01-53.343-33.329-69.858zm-39.671-130.142c30.327 0 55 24.673 55 55s-24.673 55-55 55c-.939 0-1.878-.038-2.816-.086-3.628-33.689-19.247-63.838-42.501-86.073 10.138-14.745 26.987-23.841 45.317-23.841zm-16.996 260c-.091 0-250.004 0-250.004 0-33.084 0-60-26.916-60-60 0-28.296 19.695-52.063 46.092-58.355 1.614 13.557 5.183 26.74 10.688 39.355 2.461 5.64 7.972 9.004 13.756 9.004 2.002 0 4.039-.404 5.992-1.256 7.593-3.313 11.062-12.155 7.749-19.748-6.076-13.923-9.167-28.733-9.186-44.02.753-60.009 49.724-109.98 109.909-109.98 56.052 0 102.443 42.143 109.16 96.408-18.01 3.181-34.598 11.751-47.8 24.953-5.858 5.858-5.858 15.355 0 21.213 2.929 2.929 6.768 4.394 10.606 4.394s7.678-1.464 10.606-4.394c11.334-11.333 26.402-17.574 42.428-17.574 33.084 0 60 26.916 60 60 0 33.083-26.914 59.998-59.996 60z"/></svg>