<svg id="Capa_1" enable-background="new 0 0 512 512" height="512" viewBox="0 0 512 512" width="512" xmlns="http://www.w3.org/2000/svg"><g><path d="m512 126c0-8.539-.881-17.117-2.62-25.496-1.417-6.828-7.352-11.779-14.323-11.949-6.964-.156-13.14 4.488-14.886 11.239-6.276 24.262-28.141 41.206-53.171 41.206-30.327 0-55-24.673-55-55 0-25.03 16.944-46.895 41.206-53.171 6.751-1.747 11.408-7.915 11.239-14.886s-5.121-12.906-11.949-14.323c-8.379-1.739-16.957-2.62-25.496-2.62-31.729 0-61.981 11.904-85.185 33.52-17.836 16.615-30.25 37.776-36.065 61.004-15.743-6.145-32.858-9.524-50.75-9.524-72.518 0-132.335 55.426-139.319 126.138-42.848 6.877-75.681 44.106-75.681 88.862 0 42.245 29.259 77.778 68.575 87.416l-12.421 29.811c-2.863 6.871-.254 14.802 6.129 18.631l28.886 17.332-15.015 36.037c-3.186 7.647.43 16.429 8.077 19.615 1.886.786 3.84 1.158 5.763 1.158 5.874 0 11.452-3.474 13.852-9.235l20-48c2.863-6.871.254-14.802-6.129-18.631l-28.886-17.332 11.167-26.802h50.834l-11.345 27.227c-2.863 6.871-.254 14.802 6.129 18.631l28.886 17.332-15.015 36.037c-3.186 7.647.43 16.429 8.077 19.615 1.886.786 3.84 1.158 5.763 1.158 5.874 0 11.452-3.474 13.852-9.235l20-48c2.863-6.871.254-14.802-6.129-18.631l-28.886-17.332 11.168-26.802h50.833l-11.345 27.227c-2.863 6.871-.254 14.802 6.129 18.631l28.886 17.332-15.015 36.037c-3.186 7.647.43 16.429 8.077 19.615 1.886.786 3.84 1.158 5.763 1.158 5.874 0 11.452-3.474 13.852-9.235l20-48c2.863-6.871.254-14.802-6.129-18.631l-28.886-17.332 11.168-26.802h50.834l-11.345 27.227c-2.863 6.871-.254 14.802 6.129 18.631l28.886 17.332-15.015 36.037c-3.186 7.647.43 16.429 8.077 19.615 1.886.786 3.84 1.158 5.763 1.158 5.874 0 11.452-3.474 13.852-9.235l20-48c2.863-6.871.254-14.802-6.129-18.631l-28.886-17.332 11.412-27.388c44.82-5.102 79.757-43.252 79.757-89.414 0-19.67-6.346-37.883-17.092-52.707 56.534-11.963 99.092-62.249 99.092-122.293zm-406.911 99.981c.755-60.01 49.726-109.981 109.911-109.981 56.052 0 102.443 42.143 109.16 96.408-18.01 3.181-34.598 11.75-47.8 24.952-5.858 5.858-5.858 15.355 0 21.213 2.929 2.929 6.768 4.394 10.607 4.394 3.838 0 7.678-1.465 10.606-4.393 11.333-11.333 26.401-17.574 42.427-17.574 33.084 0 60 26.916 60 60s-26.916 60-60 60h-250c-33.084 0-60-26.916-60-60 0-28.296 19.695-52.063 46.092-58.355 1.614 13.557 5.183 26.74 10.688 39.355 2.461 5.64 7.972 9.004 13.756 9.004 2.002 0 4.039-.404 5.992-1.256 7.593-3.313 11.062-12.155 7.749-19.748-6.078-13.923-9.169-28.733-9.188-44.019zm281.911-4.981c-2.054 0-4.145-.095-6.241-.232-8.175-4.169-17.068-7.126-26.439-8.63-4.19-42.426-27.405-79.343-60.965-102.094 6.035-35.495 31.939-64.206 65.439-74.726-10.629 14.28-16.794 31.906-16.794 50.682 0 46.869 38.131 85 85 85 18.802 0 36.451-6.182 50.739-16.837-12.03 38.674-48.158 66.837-90.739 66.837z"/></g></svg>